<?xml version="1.0" encoding="UTF-8" standalone="yes"?><svg class="icon" xmlns="http://www.w3.org/2000/svg" xmlns:xlink="http://www.w3.org/1999/xlink" version="1.2" baseProfile="tiny" x="0" y="0" width="200" height="200" viewBox="0 0 1024 1024"><defs/><path fill="#008dfa" fill-opacity="1" d="M 860.416 721.088 L 860.416 618.688 C 858.24 616.512 853.888 614.336 849.536 612.16 C 840.832 607.808 829.952 603.456 819.072 596.928 C 803.84 590.4 788.608 586.048 775.552 581.696 C 762.432 579.52 751.552 577.344 742.848 577.344 C 725.44 577.344 723.264 577.344 647.04 607.808 C 588.224 631.808 548.992 642.688 503.296 642.688 C 457.536 642.688 420.544 631.808 368.256 607.808 C 300.8 577.344 300.8 577.344 283.328 577.344 C 276.8 577.344 270.272 577.344 263.744 579.52 C 248.512 581.696 231.104 588.224 211.456 596.928 L 185.344 609.984 C 181.442 611.665 177.783 613.86 174.464 616.512 L 163.584 625.216 L 163.584 725.44 C 172.288 721.088 183.168 714.56 194.048 710.208 C 215.808 699.328 235.392 692.736 255.04 688.448 C 265.92 686.208 274.624 686.208 283.328 686.208 C 309.44 686.208 309.44 686.208 385.728 721.088 C 431.424 742.848 464.064 751.552 501.12 751.552 C 540.288 751.552 575.168 742.848 629.632 721.088 C 716.672 686.208 714.56 686.208 740.672 686.208 C 753.728 686.208 768.96 688.384 784.192 692.736 C 799.488 697.088 816.832 703.616 834.304 710.208 C 843.008 712.384 851.712 716.736 860.416 721.088 M 860.416 771.136 C 858.24 768.96 853.888 766.784 849.536 764.608 C 840.832 760.256 829.952 755.904 819.072 749.376 C 803.84 742.848 788.608 738.496 775.552 734.144 C 762.432 731.968 751.552 729.792 742.848 729.792 C 725.44 729.792 723.264 729.792 647.04 760.256 C 588.224 784.192 548.992 795.136 503.296 795.136 C 457.536 795.136 420.544 784.256 368.256 760.256 C 300.736 729.792 300.736 729.792 283.328 729.792 C 276.8 729.792 270.272 729.792 263.744 731.968 C 248.512 734.144 231.104 740.672 211.456 749.376 L 185.344 762.432 C 181.442 764.113 177.783 766.308 174.464 768.96 L 163.584 777.664 L 163.584 860.416 L 860.416 860.416 L 860.416 771.2 L 860.416 771.136 M 860.416 568.64 L 860.416 466.24 C 858.24 464.064 853.888 461.888 849.536 459.712 C 840.832 455.36 829.952 451.008 819.072 444.48 C 803.84 437.952 788.608 433.6 775.552 429.248 C 762.432 427.072 751.552 424.896 742.848 424.896 C 725.44 424.896 723.264 424.896 647.04 455.36 C 588.224 479.36 548.992 490.24 503.296 490.24 C 457.536 490.24 420.544 479.36 368.256 455.36 C 300.8 424.96 300.8 424.96 283.328 424.96 C 276.8 424.96 270.272 424.96 263.744 427.136 C 248.512 429.312 231.104 435.84 211.456 444.544 L 185.344 457.6 C 181.442 459.281 177.783 461.476 174.464 464.128 L 163.584 472.896 L 163.584 573.056 C 172.288 568.704 183.168 562.176 194.048 557.824 C 215.808 546.944 235.392 540.352 255.04 536.064 C 265.92 533.824 274.624 533.824 283.328 533.824 C 309.44 533.824 309.44 533.824 385.728 568.704 C 431.424 590.464 464.064 599.168 501.12 599.168 C 540.288 599.168 575.168 590.464 629.632 568.704 C 716.672 533.824 714.56 533.824 740.672 533.824 C 753.728 533.824 768.96 536 784.192 540.352 C 799.488 544.704 816.832 551.232 834.304 557.824 C 843.008 560 851.712 564.352 860.416 568.704 L 860.416 568.64 M 860.416 313.792 C 858.24 311.616 853.888 309.44 849.536 307.264 C 840.832 302.912 829.952 298.56 819.072 292.032 C 803.84 285.504 788.608 281.152 775.552 276.8 C 762.432 274.624 749.376 272.448 740.672 272.448 C 723.264 272.448 721.088 272.448 644.864 302.912 C 585.984 326.912 546.816 337.792 501.12 337.792 C 455.36 337.792 418.368 326.912 366.08 302.912 C 300.8 272.448 300.8 272.448 283.328 272.448 C 276.8 272.448 270.272 272.448 263.744 274.624 C 248.512 276.8 231.104 283.328 211.456 292.032 C 202.752 296.384 194.048 300.736 185.344 307.264 L 176.64 311.616 L 163.584 320.384 L 163.584 420.48 C 172.288 416.128 183.168 409.6 194.048 405.248 C 215.808 394.368 235.392 387.776 255.04 383.488 C 265.92 381.248 274.624 381.248 283.328 381.248 C 309.44 381.248 309.44 381.248 385.728 416.128 C 431.424 437.888 464.064 446.592 501.12 446.592 C 540.288 446.592 575.168 437.888 629.632 416.128 C 716.672 381.248 714.56 381.248 740.672 381.248 C 753.728 381.248 768.96 383.424 784.192 387.776 C 799.488 392.128 816.832 398.656 834.304 405.248 C 843.008 409.6 851.712 411.776 860.416 416.128 L 860.416 313.728 L 860.416 313.792 M 860.416 263.744 L 860.416 163.584 L 163.584 163.584 L 163.584 268.096 C 172.288 263.744 183.168 257.216 194.048 252.864 C 215.808 241.984 235.392 235.392 255.04 231.104 C 265.92 228.864 274.624 228.864 283.328 228.864 C 309.44 228.864 309.44 228.864 385.728 263.744 C 431.424 285.504 464.064 294.208 501.12 294.208 C 540.288 294.208 575.168 285.504 629.632 263.744 C 716.672 228.864 714.56 228.864 740.672 228.864 C 753.728 228.864 768.96 231.04 784.192 235.392 C 799.488 239.808 816.832 246.272 834.304 252.864 C 843.008 255.04 851.712 259.392 860.416 263.744 M 142.208 96 L 881.792 96 C 907.2 96 928 116.8 928 142.208 L 928 881.792 C 927.93 907.283 907.283 927.93 881.792 928 L 142.208 928 C 116.717 927.93 96.0703 907.283 96 881.792 L 96 142.208 C 96 116.8 116.8 96 142.208 96"/></svg>
