<?xml version="1.0" encoding="UTF-8" standalone="yes"?><svg class="icon" xmlns="http://www.w3.org/2000/svg" xmlns:xlink="http://www.w3.org/1999/xlink" version="1.2" baseProfile="tiny" x="0" y="0" width="200" height="200" viewBox="0 0 1024 1024"><defs/><path fill="#008dfa" fill-opacity="1" d="M 525.7 120.22 L 850.02 281.73 C 860.38 287.34 866.4 298.14 866.4 309.33 L 866.4 714.96 C 866.4 728.12 858.65 738.9 847.01 743.23 L 525.7 904.1 C 517.07 908.41 506.71 907.99 498.52 904.1 L 174.62 741.7 C 163.84 736.53 157.82 725.76 157.82 714.96 L 157.6 714.96 L 157.6 309.34 C 157.6 296.2 166.01 285.4 177.23 280.68 L 498.52 120.23 C 507.57 115.7 517.51 115.7 525.7 120.22 M 404.49 234.72 L 674.07 369.73 L 782.32 316.03 L 512.32 181.04 L 404.49 234.72 M 242.34 316.03 L 512.32 451.02 L 633.53 390 L 363.75 255.21 L 242.34 316.03 M 218.63 344.71 L 218.63 695.77 L 493.77 834 L 493.77 482.5 L 218.63 344.71 M 530.45 834.01 L 806.04 695.78 L 806.04 344.71 C 714.18 390.42 622.32 436.57 530.45 482.5 L 530.45 834.01"/></svg>
