<?xml version="1.0" encoding="UTF-8" standalone="yes"?><svg xmlns="http://www.w3.org/2000/svg" xmlns:xlink="http://www.w3.org/1999/xlink" version="1.2" baseProfile="tiny" x="0" y="0" width="255" height="255" viewBox="0 0 256 256"><defs/><defs/><g fill="none" fill-rule="evenodd" stroke="#000000" stroke-width="1" stroke-linejoin="bevel" stroke-linecap="square"><g fill="none" font-family="微软雅黑" font-size="12" font-style="normal" font-weight="400" stroke="#000000" stroke-width="1" stroke-linejoin="bevel" stroke-linecap="square" stroke-opacity="1" transform="matrix(0.0666667,0,0,0.0666667,0.933333,0.933333)"/><g fill="none" font-family="微软雅黑" font-size="12" font-style="normal" font-weight="400" stroke="#000000" stroke-width="1" stroke-linejoin="bevel" stroke-linecap="square" stroke-opacity="1" transform="matrix(0.0666667,0,0,0.0666667,0,0)"/><g fill="none" font-family="微软雅黑" font-size="12" font-style="normal" font-weight="400" stroke="#000000" stroke-width="1" stroke-linejoin="bevel" stroke-linecap="square" stroke-opacity="1" transform="matrix(0.0666667,0,0,0.0666667,0,0)"/><g fill="none" font-family="微软雅黑" font-size="12" font-style="normal" font-weight="400" stroke="#000000" stroke-width="1" stroke-linejoin="bevel" stroke-linecap="square" stroke-opacity="1" transform="matrix(0.0666667,0,0,0.0666667,0,0)"/><g fill="none" font-family="微软雅黑" font-size="12" font-style="normal" font-weight="400" stroke="#000000" stroke-width="1" stroke-linejoin="bevel" stroke-linecap="square" stroke-opacity="1" transform="matrix(0.0666667,0,0,0.0666667,0,0)"/><g fill="none" font-family="微软雅黑" font-size="12" font-style="normal" font-weight="400" stroke="#000000" stroke-width="1" stroke-linejoin="bevel" stroke-linecap="square" stroke-opacity="1" transform="matrix(0.0666667,0,0,0.0666667,0,0)"/><g fill="#333333" fill-opacity="1" font-family="Arial" font-size="16" font-style="normal" font-weight="400" stroke="none" transform="matrix(0.748407,0,0,0.748407,26.7572,-0.0599937)"><path fill="#5b9bd5" fill-opacity="1" vector-effect="none" d="M 77.5967 154.111 L 78.1579 154.712 L 79.1198 155.955 L 80.1218 157.077 L 82.2461 159.402 L 84.3704 161.606 L 86.655 163.731 L 88.9797 165.735 L 91.4246 167.699 L 93.9497 169.502 L 96.4348 171.266 L 99.0801 172.869 L 101.766 174.432 L 104.571 175.795 L 107.337 177.118 L 110.183 178.36 L 113.028 179.402 L 115.994 180.404 L 118.96 181.206 L 118.319 182.008 L 117.678 182.729 L 117.117 183.491 L 116.515 184.372 L 116.074 185.174 L 115.553 186.056 L 115.072 186.938 L 114.672 187.859 L 114.391 188.701 L 114.07 189.663 L 113.75 190.585 L 113.549 191.627 L 113.389 192.549 L 113.189 193.551 L 113.149 194.593 L 113.108 195.595 L 113.149 196.797 L 113.269 197.92 L 113.469 199.042 L 113.67 200.084 L 113.91 201.166 L 114.231 202.289 L 114.632 203.331 L 115.032 204.333 L 115.593 205.295 L 116.115 206.257 L 116.676 207.178 L 117.357 208.1 L 117.998 208.982 L 118.72 209.864 L 119.521 210.665 L 120.323 211.387 L 108.299 301.649 L 137.558 330.027 L 165.975 301.649 L 153.991 211.387 L 154.833 210.625 L 155.554 209.784 L 156.316 208.942 L 156.997 208.1 L 157.598 207.138 L 158.24 206.257 L 158.801 205.255 L 159.242 204.293 L 159.642 203.25 L 160.123 202.248 L 160.404 201.166 L 160.685 200.084 L 160.885 199.042 L 161.045 197.84 L 161.125 196.797 L 161.125 195.595 L 161.125 194.593 L 161.085 193.671 L 160.965 192.749 L 160.845 191.827 L 160.644 190.906 L 160.404 190.024 L 160.163 189.182 L 159.803 188.3 L 159.442 187.499 L 159.081 186.617 L 158.68 185.855 L 158.28 185.054 L 157.719 184.252 L 157.238 183.451 L 156.676 182.729 L 156.195 182.008 L 159.041 181.326 L 161.967 180.485 L 164.813 179.563 L 167.699 178.561 L 170.424 177.398 L 173.19 176.196 L 175.875 174.833 L 178.521 173.35 L 181.086 171.827 L 183.571 170.144 L 186.096 168.38 L 188.421 166.576 L 190.785 164.612 L 192.99 162.568 L 195.114 160.484 L 197.278 158.28 L 197.84 157.719 L 198.441 158.24 L 202.449 161.286 L 206.257 164.452 L 210.064 167.739 L 211.988 169.382 L 213.792 171.065 L 215.555 172.789 L 217.359 174.512 L 219.163 176.276 L 220.886 178 L 222.57 179.723 L 224.253 181.567 L 225.936 183.41 L 227.58 185.254 L 229.143 187.138 L 230.746 189.022 L 232.269 190.946 L 233.792 192.95 L 235.275 194.874 L 236.758 196.878 L 238.241 198.922 L 239.644 200.966 L 241.007 203.01 L 242.41 205.094 L 243.732 207.259 L 245.015 209.343 L 246.297 211.587 L 247.5 213.792 L 248.742 215.956 L 249.905 218.201 L 251.067 220.485 L 252.149 222.81 L 253.272 225.175 L 254.314 227.499 L 255.396 229.864 L 256.358 232.349 L 257.32 234.754 L 258.242 237.199 L 259.163 239.764 L 259.965 242.249 L 260.847 244.814 L 261.608 247.42 L 262.45 250.025 L 263.131 252.75 L 263.813 255.396 L 264.534 258.161 L 265.135 260.847 L 265.737 263.612 L 266.298 266.418 L 266.859 269.264 L 267.34 272.15 L 267.861 275.035 L 268.262 277.961 L 268.623 280.967 L 268.983 283.933 L 269.264 286.98 L 269.544 290.066 L 269.825 293.112 L 270.065 296.278 L 270.186 299.445 L 270.346 302.611 L 270.386 305.858 L 270.386 306.379 L 269.985 306.659 L 266.258 308.784 L 262.49 310.868 L 258.682 312.872 L 254.875 314.796 L 250.987 316.68 L 247.099 318.523 L 243.171 320.287 L 239.243 321.97 L 235.275 323.574 L 231.307 325.177 L 227.339 326.62 L 223.291 328.022 L 219.203 329.425 L 215.114 330.628 L 211.026 331.91 L 206.938 333.033 L 202.81 334.115 L 198.601 335.117 L 194.473 336.079 L 190.304 336.961 L 186.136 337.762 L 181.887 338.564 L 177.639 339.205 L 173.47 339.766 L 169.222 340.327 L 164.933 340.808 L 160.685 341.169 L 156.396 341.45 L 152.107 341.73 L 147.819 341.971 L 143.49 342.051 L 139.201 342.051 L 134.632 342.051 L 130.023 341.931 L 125.413 341.65 L 120.884 341.41 L 116.315 341.049 L 111.786 340.648 L 107.217 340.127 L 102.727 339.486 L 98.1582 338.804 L 93.6692 338.043 L 89.2202 337.161 L 84.7311 336.239 L 80.2821 335.277 L 75.8332 334.155 L 71.4643 333.033 L 67.0955 331.79 L 62.6866 330.467 L 58.3579 329.145 L 54.0692 327.662 L 49.7805 326.139 L 45.532 324.495 L 41.2834 322.812 L 37.115 321.048 L 32.8664 319.205 L 28.738 317.241 L 24.6498 315.277 L 20.5615 313.233 L 16.4332 311.068 L 12.4251 308.904 L 8.417 306.659 L 4.48907 304.255 L 0.561133 301.81 L 0.0801619 303.894 L 0.0801619 301.008 L 0.240486 297.761 L 0.44089 294.475 L 0.641295 291.228 L 0.961943 288.102 L 1.24251 284.935 L 1.56316 281.769 L 2.00405 278.763 L 2.40486 275.717 L 2.84575 272.711 L 3.32672 269.745 L 3.88785 266.779 L 4.44899 263.893 L 5.01012 261.007 L 5.73158 258.201 L 6.33279 255.396 L 7.05425 252.63 L 7.81579 249.865 L 8.57732 247.219 L 9.41902 244.494 L 10.2206 241.889 L 11.1425 239.243 L 12.0243 236.718 L 12.9862 234.193 L 13.9482 231.628 L 14.9903 229.183 L 15.9923 226.778 L 17.0745 224.333 L 18.1567 221.928 L 19.319 219.604 L 20.4814 217.319 L 21.6838 214.994 L 22.8862 212.75 L 24.1688 210.505 L 25.4514 208.301 L 26.7741 206.176 L 28.0967 203.972 L 29.4996 201.848 L 30.8623 199.804 L 32.3453 197.679 L 33.8283 195.715 L 35.3113 193.671 L 36.7943 191.707 L 38.3976 189.743 L 39.9607 187.859 L 41.5639 185.976 L 43.1672 184.052 L 44.8506 182.248 L 46.5741 180.404 L 48.1773 178.601 L 49.9809 176.837 L 51.7044 175.074 L 53.5081 173.35 L 55.3518 171.667 L 57.1955 169.983 L 59.0392 168.34 L 60.923 166.697 L 62.8469 165.134 L 64.7307 163.53 L 66.7348 162.007 L 68.7789 160.484 L 70.783 158.961 L 72.787 157.438 L 76.9153 154.552 L 77.5967 154.111 M 135.193 0.0801619 L 137.237 0.0801619 L 139.402 0.0801619 L 141.446 0.200405 L 143.49 0.320648 L 145.454 0.521052 L 147.498 0.721457 L 149.502 1.00202 L 151.466 1.36275 L 153.43 1.72348 L 155.394 2.12429 L 157.278 2.60526 L 159.202 3.1664 L 161.125 3.68745 L 162.929 4.28866 L 164.853 4.97004 L 166.617 5.65141 L 168.46 6.45303 L 170.264 7.21457 L 172.027 7.97611 L 173.791 8.89797 L 175.474 9.73967 L 177.198 10.7417 L 178.841 11.7036 L 180.485 12.7858 L 182.128 13.8279 L 183.651 14.9101 L 185.214 16.0324 L 186.777 17.2348 L 188.3 18.4372 L 189.783 19.6797 L 191.146 20.9623 L 192.589 22.285 L 193.952 23.6077 L 195.355 25.0506 L 196.637 26.3733 L 197.88 27.8563 L 199.162 29.3393 L 200.365 30.8223 L 201.527 32.3052 L 202.689 33.8684 L 203.772 35.4716 L 204.854 37.115 L 205.816 38.7583 L 206.858 40.4417 L 207.74 42.1251 L 208.742 43.8486 L 209.543 45.572 L 210.425 47.2554 L 211.187 49.0591 L 211.948 50.9028 L 212.629 52.7465 L 213.231 54.5903 L 213.872 56.4741 L 214.473 58.3579 L 214.954 60.2417 L 215.435 62.2056 L 215.876 64.1295 L 216.237 66.1336 L 216.557 68.1376 L 216.798 70.1016 L 217.078 72.1056 L 217.199 74.1097 L 217.359 76.1538 L 217.479 78.1979 L 217.519 80.2821 L 217.479 82.687 L 217.319 85.2121 L 217.119 87.617 L 216.918 89.9417 L 216.597 92.3465 L 216.197 94.7113 L 215.716 97.0761 L 215.155 99.3206 L 214.593 101.645 L 213.952 103.89 L 213.231 106.094 L 212.469 108.299 L 211.587 110.463 L 210.665 112.587 L 209.704 114.752 L 208.742 116.796 L 207.619 118.84 L 206.497 120.804 L 205.295 122.768 L 204.012 124.692 L 202.77 126.616 L 201.367 128.419 L 200.004 130.263 L 198.521 132.027 L 197.078 133.75 L 195.515 135.434 L 193.912 137.077 L 192.228 138.6 L 190.545 140.203 L 188.821 141.686 L 187.058 143.169 L 185.214 144.532 L 182.729 146.376 L 180.084 148.099 L 177.358 149.702 L 174.633 151.225 L 171.787 152.668 L 168.861 153.991 L 167.498 154.592 L 165.975 155.153 L 164.492 155.795 L 162.929 156.276 L 161.406 156.757 L 159.923 157.197 L 158.4 157.719 L 156.797 158.079 L 155.234 158.48 L 153.63 158.801 L 152.067 159.121 L 150.464 159.482 L 148.901 159.683 L 147.257 159.923 L 145.614 160.083 L 143.931 160.244 L 142.287 160.324 L 140.604 160.444 L 138.921 160.484 L 137.237 160.484 L 135.353 160.484 L 133.429 160.364 L 131.466 160.284 L 129.582 160.123 L 127.698 159.923 L 125.854 159.723 L 123.97 159.402 L 122.127 159.041 L 120.283 158.68 L 118.439 158.28 L 116.636 157.839 L 114.872 157.318 L 113.108 156.757 L 111.345 156.195 L 109.661 155.634 L 107.978 154.913 L 106.215 154.232 L 104.531 153.47 L 102.888 152.708 L 101.285 151.947 L 99.6412 151.065 L 98.038 150.263 L 96.5149 149.302 L 94.9518 148.38 L 93.3886 147.418 L 91.9056 146.376 L 90.3825 145.374 L 88.9396 144.251 L 87.5769 143.169 L 86.134 141.967 L 84.7712 140.844 L 83.3684 139.642 L 81.9255 138.239 L 80.4826 136.836 L 79.0396 135.393 L 77.5967 133.87 L 76.3542 132.307 L 74.9915 130.744 L 73.7489 129.101 L 72.5064 127.457 L 71.3441 125.814 L 70.1417 124.091 L 69.0996 122.367 L 68.0174 120.604 L 66.9753 118.84 L 66.0133 116.996 L 65.0915 115.153 L 64.2097 113.269 L 63.4081 111.385 L 62.6064 109.421 L 61.885 107.497 L 61.2036 105.533 L 60.5623 103.529 L 60.0012 101.485 L 59.4801 99.4408 L 58.919 97.3566 L 58.5182 95.3125 L 58.1575 93.2283 L 57.8368 91.1441 L 57.5963 88.9797 L 57.3158 86.8153 L 57.1554 84.651 L 57.1154 82.4465 L 57.0753 80.2821 L 57.1154 78.1979 L 57.1554 76.1538 L 57.3158 74.1097 L 57.5162 72.1056 L 57.7567 70.0615 L 58.0372 68.0575 L 58.3579 66.1336 L 58.7186 64.0894 L 59.1194 62.1656 L 59.6405 60.2417 L 60.1214 58.3178 L 60.6826 56.434 L 61.3639 54.5903 L 61.9652 52.7065 L 62.6465 50.9028 L 63.4081 49.0591 L 64.1696 47.2554 L 65.0514 45.572 L 65.853 43.8085 L 66.8149 42.1251 L 67.7368 40.4417 L 68.7789 38.7583 L 69.7409 37.115 L 70.823 35.4716 L 71.9052 33.8684 L 73.0676 32.3052 L 74.2299 30.8223 L 75.4323 29.2992 L 76.6749 27.8162 L 77.9574 26.3733 L 79.24 24.9304 L 80.6429 23.6077 L 82.0056 22.2449 L 83.3684 20.8822 L 84.8113 19.6797 L 86.2943 18.3972 L 87.8174 17.1546 L 89.3805 16.0324 L 90.9437 14.9101 L 92.4668 13.8279 L 94.1101 12.7057 L 95.7534 11.7036 L 97.4368 10.7417 L 99.1202 9.73967 L 100.804 8.89797 L 102.607 7.97611 L 104.331 7.21457 L 106.134 6.45303 L 107.978 5.65141 L 109.742 4.97004 L 111.625 4.28866 L 113.469 3.68745 L 115.393 3.1664 L 117.317 2.60526 L 119.201 2.12429 L 121.165 1.72348 L 123.129 1.32267 L 125.093 1.00202 L 127.057 0.721457 L 129.101 0.521052 L 131.105 0.320648 L 133.149 0.200405 L 135.193 0.0801619"/></g><g fill="none" font-family="微软雅黑" font-size="12" font-style="normal" font-weight="400" stroke="#000000" stroke-width="1" stroke-linejoin="bevel" stroke-linecap="square" stroke-opacity="1" transform="matrix(0.0666667,0,0,0.0666667,0,0)"/><g fill="none" font-family="微软雅黑" font-size="12" font-style="normal" font-weight="400" stroke="#000000" stroke-width="1" stroke-linejoin="bevel" stroke-linecap="square" stroke-opacity="1" transform="matrix(0.0666667,0,0,0.0666667,0,0)"/><g fill="none" font-family="微软雅黑" font-size="12" font-style="normal" font-weight="400" stroke="#000000" stroke-width="1" stroke-linejoin="bevel" stroke-linecap="square" stroke-opacity="1" transform="matrix(0.0666667,0,0,0.0666667,0,0)"/><g fill="none" font-family="微软雅黑" font-size="12" font-style="normal" font-weight="400" stroke="#000000" stroke-width="1" stroke-linejoin="bevel" stroke-linecap="square" stroke-opacity="1" transform="matrix(0.0666667,0,0,0.0666667,0,0)"/><g fill="none" font-family="微软雅黑" font-size="12" font-style="normal" font-weight="400" stroke="#000000" stroke-width="1" stroke-linejoin="bevel" stroke-linecap="square" stroke-opacity="1" transform="matrix(0.0666667,0,0,0.0666667,0,0)"/><g fill="none" font-family="微软雅黑" font-size="12" font-style="normal" font-weight="400" stroke="#000000" stroke-width="1" stroke-linejoin="bevel" stroke-linecap="square" stroke-opacity="1" transform="matrix(0.0666667,0,0,0.0666667,0,0)"/><g fill="none" font-family="微软雅黑" font-size="12" font-style="normal" font-weight="400" stroke="#000000" stroke-width="1" stroke-linejoin="bevel" stroke-linecap="square" stroke-opacity="1" transform="matrix(0.0666667,0,0,0.0666667,0.933333,0.933333)"/></g></svg>
