<?xml version="1.0" encoding="UTF-8" standalone="yes"?><svg xmlns="http://www.w3.org/2000/svg" xmlns:xlink="http://www.w3.org/1999/xlink" version="1.2" baseProfile="tiny" x="0" y="0" width="255" height="255" viewBox="0 0 256 256"><defs/><defs/><g fill="none" fill-rule="evenodd" stroke="#000000" stroke-width="1" stroke-linejoin="bevel" stroke-linecap="square"><g fill="none" font-family="微软雅黑" font-size="12" font-style="normal" font-weight="400" stroke="#000000" stroke-width="1" stroke-linejoin="bevel" stroke-linecap="square" stroke-opacity="1" transform="matrix(0.0666667,0,0,0.0666667,0.933333,0.933333)"/><g fill="none" font-family="微软雅黑" font-size="12" font-style="normal" font-weight="400" stroke="#000000" stroke-width="1" stroke-linejoin="bevel" stroke-linecap="square" stroke-opacity="1" transform="matrix(0.0666667,0,0,0.0666667,0,0)"/><g fill="none" font-family="微软雅黑" font-size="12" font-style="normal" font-weight="400" stroke="#000000" stroke-width="1" stroke-linejoin="bevel" stroke-linecap="square" stroke-opacity="1" transform="matrix(0.0666667,0,0,0.0666667,0,0)"/><g fill="none" font-family="微软雅黑" font-size="12" font-style="normal" font-weight="400" stroke="#000000" stroke-width="1" stroke-linejoin="bevel" stroke-linecap="square" stroke-opacity="1" transform="matrix(0.0666667,0,0,0.0666667,0,0)"/><g fill="none" font-family="微软雅黑" font-size="12" font-style="normal" font-weight="400" stroke="#000000" stroke-width="1" stroke-linejoin="bevel" stroke-linecap="square" stroke-opacity="1" transform="matrix(0.0666667,0,0,0.0666667,0,0)"/><g fill="none" font-family="微软雅黑" font-size="12" font-style="normal" font-weight="400" stroke="#000000" stroke-width="1" stroke-linejoin="bevel" stroke-linecap="square" stroke-opacity="1" transform="matrix(0.0666667,0,0,0.0666667,0,0)"/><g fill="#333333" fill-opacity="1" font-family="Arial" font-size="16" font-style="normal" font-weight="400" stroke="none" transform="matrix(5.44539,0,0,5.44539,-54.4539,-40.8404)"><path fill="#5b9bd5" fill-opacity="1" vector-effect="none" d="M 39.5403 36.9687 C 37.954 38.8751 37 41.3261 37 44 C 37 47.7203 38.8469 51.0092 41.6738 53 L 12.763 53 C 11.9504 53.0025 11.1781 52.6448 10.6529 52.0225 C 10.1277 51.4002 9.90292 50.5771 10.0388 49.7731 C 11.1906 43.2615 15.5779 37.7914 21.6708 35.2699 C 22.0487 35.1125 22.3079 34.7575 22.3443 34.3484 C 22.3805 33.9395 22.1875 33.5442 21.8431 33.3223 C 16.8593 30.0862 14.6472 23.9054 16.4408 18.2269 C 18.2343 12.5484 23.5906 8.77481 29.5222 9.01044 C 36.3494 9.2725 41.8914 14.8228 42.1631 21.6785 C 42.3583 26.3553 40.072 30.7863 36.1533 33.3258 C 35.8115 33.5492 35.621 33.9441 35.6584 34.3518 C 35.6956 34.7596 35.9549 35.113 36.3319 35.2699 C 37.4635 35.7385 38.5362 36.3089 39.5403 36.9687 M 31.8779 45.6512 C 32.022 45.4368 32.0624 45.1686 31.9877 44.9209 L 29.4868 36.5633 L 29.9439 36.5633 C 30.0811 36.5669 30.2057 36.4841 30.2559 36.3559 L 30.6103 35.0614 C 30.6442 34.9753 30.633 34.878 30.5806 34.8018 C 30.5283 34.7257 30.4415 34.6808 30.3493 34.682 L 27.6498 34.682 C 27.5574 34.6808 27.4706 34.7257 27.4184 34.8018 C 27.3659 34.878 27.3548 34.9753 27.3887 35.0614 L 27.7431 36.3559 C 27.7933 36.4841 27.9179 36.5669 28.055 36.5633 L 28.5121 36.5633 L 26.0112 44.9209 C 25.9372 45.1686 25.9776 45.4366 26.121 45.6512 L 28.6244 49.3831 C 28.7084 49.5081 28.8491 49.5833 28.9995 49.5833 C 29.1498 49.5833 29.2905 49.5081 29.3746 49.3831 L 31.8779 45.6512 M 48 53 C 43.0294 53 39 48.9706 39 44 C 39 39.0294 43.0294 35 48 35 C 52.9706 35 57 39.0294 57 44 C 57 48.9706 52.9706 53 48 53 M 48.1569 41.0355 C 46.9853 39.864 45.0858 39.864 43.9142 41.0355 C 42.7426 42.2071 42.7426 44.1066 43.9142 45.2782 L 48.1569 49.5208 L 52.3995 45.2782 C 53.5711 44.1066 53.5711 42.2071 52.3995 41.0355 C 51.2279 39.864 49.3284 39.864 48.1569 41.0355"/></g><g fill="none" font-family="微软雅黑" font-size="12" font-style="normal" font-weight="400" stroke="#000000" stroke-width="1" stroke-linejoin="bevel" stroke-linecap="square" stroke-opacity="1" transform="matrix(0.0666667,0,0,0.0666667,0,0)"/><g fill="none" font-family="微软雅黑" font-size="12" font-style="normal" font-weight="400" stroke="#000000" stroke-width="1" stroke-linejoin="bevel" stroke-linecap="square" stroke-opacity="1" transform="matrix(0.0666667,0,0,0.0666667,0,0)"/><g fill="none" font-family="微软雅黑" font-size="12" font-style="normal" font-weight="400" stroke="#000000" stroke-width="1" stroke-linejoin="bevel" stroke-linecap="square" stroke-opacity="1" transform="matrix(0.0666667,0,0,0.0666667,0,0)"/><g fill="none" font-family="微软雅黑" font-size="12" font-style="normal" font-weight="400" stroke="#000000" stroke-width="1" stroke-linejoin="bevel" stroke-linecap="square" stroke-opacity="1" transform="matrix(0.0666667,0,0,0.0666667,0,0)"/><g fill="none" font-family="微软雅黑" font-size="12" font-style="normal" font-weight="400" stroke="#000000" stroke-width="1" stroke-linejoin="bevel" stroke-linecap="square" stroke-opacity="1" transform="matrix(0.0666667,0,0,0.0666667,0,0)"/><g fill="none" font-family="微软雅黑" font-size="12" font-style="normal" font-weight="400" stroke="#000000" stroke-width="1" stroke-linejoin="bevel" stroke-linecap="square" stroke-opacity="1" transform="matrix(0.0666667,0,0,0.0666667,0,0)"/><g fill="none" font-family="微软雅黑" font-size="12" font-style="normal" font-weight="400" stroke="#000000" stroke-width="1" stroke-linejoin="bevel" stroke-linecap="square" stroke-opacity="1" transform="matrix(0.0666667,0,0,0.0666667,0.933333,0.933333)"/></g></svg>
