<?xml version="1.0" encoding="UTF-8" standalone="yes"?><svg xmlns="http://www.w3.org/2000/svg" xmlns:xlink="http://www.w3.org/1999/xlink" version="1.2" baseProfile="tiny" x="0" y="0" width="255" height="255" viewBox="0 0 256 256"><defs/><defs/><g fill="none" fill-rule="evenodd" stroke="#000000" stroke-width="1" stroke-linejoin="bevel" stroke-linecap="square"><g fill="none" font-family="微软雅黑" font-size="12" font-style="normal" font-weight="400" stroke="#000000" stroke-width="1" stroke-linejoin="bevel" stroke-linecap="square" stroke-opacity="1" transform="matrix(0.0666667,0,0,0.0666667,0.933333,0.933333)"/><g fill="none" font-family="微软雅黑" font-size="12" font-style="normal" font-weight="400" stroke="#000000" stroke-width="1" stroke-linejoin="bevel" stroke-linecap="square" stroke-opacity="1" transform="matrix(0.0666667,0,0,0.0666667,0,0)"/><g fill="none" font-family="微软雅黑" font-size="12" font-style="normal" font-weight="400" stroke="#000000" stroke-width="1" stroke-linejoin="bevel" stroke-linecap="square" stroke-opacity="1" transform="matrix(0.0666667,0,0,0.0666667,0,0)"/><g fill="none" font-family="微软雅黑" font-size="12" font-style="normal" font-weight="400" stroke="#000000" stroke-width="1" stroke-linejoin="bevel" stroke-linecap="square" stroke-opacity="1" transform="matrix(0.0666667,0,0,0.0666667,0,0)"/><g fill="none" font-family="微软雅黑" font-size="12" font-style="normal" font-weight="400" stroke="#000000" stroke-width="1" stroke-linejoin="bevel" stroke-linecap="square" stroke-opacity="1" transform="matrix(0.0666667,0,0,0.0666667,0,0)"/><g fill="none" font-family="微软雅黑" font-size="12" font-style="normal" font-weight="400" stroke="#000000" stroke-width="1" stroke-linejoin="bevel" stroke-linecap="square" stroke-opacity="1" transform="matrix(0.0666667,0,0,0.0666667,0,0)"/><g fill="#333333" fill-opacity="1" font-family="Arial" font-size="16" font-style="normal" font-weight="400" stroke="#000000" stroke-width="1" stroke-linejoin="miter" stroke-linecap="butt" stroke-miterlimit="4" stroke-opacity="1" transform="matrix(12.9785,0,0,12.9785,-1.04038,-24.8099)"/><g fill="#333333" fill-opacity="1" font-family="Arial" font-size="16" font-style="normal" font-weight="400" stroke="none" transform="matrix(12.9785,0,0,12.9785,-1.04038,-24.8099)"><path fill="#5b9bd5" fill-opacity="1" vector-effect="none" d="M 2.48502 7.04423 C 4.86984 1.95395 10.9822 -0.0801619 17.0845 5.35081 C 18.4473 3.3167 18.4473 3.3167 18.4473 3.3167 C 19.1286 7.38492 19.1286 7.38492 19.1286 7.38492 C 19.8 11.1124 19.8 11.1124 19.8 11.1124 C 15.7318 11.4531 15.7318 11.4531 15.7318 11.4531 C 11.9942 11.7838 11.9942 11.7838 11.9942 11.7838 C 13.6977 9.74969 13.6977 9.74969 13.6977 9.74969 C 10.3008 6.36285 6.90394 6.02216 3.50708 7.38492 C 3.1664 7.04423 2.82571 7.04423 2.48502 7.04423 Z"/></g><g fill="#000000" fill-opacity="1" font-family="Arial" font-size="16" font-style="normal" font-weight="400" stroke="#000000" stroke-width="1" stroke-linejoin="miter" stroke-linecap="butt" stroke-miterlimit="4" stroke-opacity="1" transform="matrix(12.9785,0,0,12.9785,-1.04038,-24.8099)"/><g fill="#333333" fill-opacity="1" font-family="Arial" font-size="16" font-style="normal" font-weight="400" stroke="#000000" stroke-width="1" stroke-linejoin="miter" stroke-linecap="butt" stroke-miterlimit="4" stroke-opacity="1" transform="matrix(12.9785,0,0,12.9785,-1.04038,-24.8099)"/><g fill="#333333" fill-opacity="1" font-family="Arial" font-size="16" font-style="normal" font-weight="400" stroke="none" transform="matrix(12.9785,0,0,12.9785,-1.04038,-24.8099)"><path fill="#5b9bd5" fill-opacity="1" vector-effect="none" d="M 17.0745 16.4332 C 14.6997 21.5936 8.91801 23.6478 2.46498 18.1567 C 1.10223 19.8701 1.10223 19.8701 1.10223 19.8701 C 0.42085 16.0925 0.42085 16.0925 0.42085 16.0925 C 0.0801619 12.3149 0.0801619 12.3149 0.0801619 12.3149 C 3.82773 11.9742 3.82773 11.9742 3.82773 11.9742 C 7.56528 11.6235 7.56528 11.6235 7.56528 11.6235 C 6.20253 13.6876 6.20253 13.6876 6.20253 13.6876 C 9.59939 17.1246 12.6656 17.1246 16.0624 16.0925 C 16.4031 16.0925 16.7438 16.4332 17.0745 16.4332 Z"/></g><g fill="#000000" fill-opacity="1" font-family="Arial" font-size="16" font-style="normal" font-weight="400" stroke="#000000" stroke-width="1" stroke-linejoin="miter" stroke-linecap="butt" stroke-miterlimit="4" stroke-opacity="1" transform="matrix(12.9785,0,0,12.9785,-1.04038,-24.8099)"/><g fill="#000000" fill-opacity="1" font-family="Arial" font-size="16" font-style="normal" font-weight="400" stroke="#000000" stroke-width="1" stroke-linejoin="miter" stroke-linecap="butt" stroke-miterlimit="4" stroke-opacity="1" transform="matrix(0.99974,0,0,0.99974,0,0)"/><g fill="#000000" fill-opacity="1" font-family="Arial" font-size="16" font-style="normal" font-weight="400" stroke="#000000" stroke-width="1" stroke-linejoin="miter" stroke-linecap="butt" stroke-miterlimit="4" stroke-opacity="1" transform="matrix(0.0666667,0,0,0.0666667,0,0)"/><g fill="none" font-family="微软雅黑" font-size="12" font-style="normal" font-weight="400" stroke="#000000" stroke-width="1" stroke-linejoin="bevel" stroke-linecap="square" stroke-opacity="1" transform="matrix(0.0666667,0,0,0.0666667,0,0)"/><g fill="none" font-family="微软雅黑" font-size="12" font-style="normal" font-weight="400" stroke="#000000" stroke-width="1" stroke-linejoin="bevel" stroke-linecap="square" stroke-opacity="1" transform="matrix(0.0666667,0,0,0.0666667,0,0)"/><g fill="none" font-family="微软雅黑" font-size="12" font-style="normal" font-weight="400" stroke="#000000" stroke-width="1" stroke-linejoin="bevel" stroke-linecap="square" stroke-opacity="1" transform="matrix(0.0666667,0,0,0.0666667,0,0)"/><g fill="none" font-family="微软雅黑" font-size="12" font-style="normal" font-weight="400" stroke="#000000" stroke-width="1" stroke-linejoin="bevel" stroke-linecap="square" stroke-opacity="1" transform="matrix(0.0666667,0,0,0.0666667,0,0)"/><g fill="none" font-family="微软雅黑" font-size="12" font-style="normal" font-weight="400" stroke="#000000" stroke-width="1" stroke-linejoin="bevel" stroke-linecap="square" stroke-opacity="1" transform="matrix(0.0666667,0,0,0.0666667,0,0)"/><g fill="none" font-family="微软雅黑" font-size="12" font-style="normal" font-weight="400" stroke="#000000" stroke-width="1" stroke-linejoin="bevel" stroke-linecap="square" stroke-opacity="1" transform="matrix(0.0666667,0,0,0.0666667,0,0)"/><g fill="none" font-family="微软雅黑" font-size="12" font-style="normal" font-weight="400" stroke="#000000" stroke-width="1" stroke-linejoin="bevel" stroke-linecap="square" stroke-opacity="1" transform="matrix(0.0666667,0,0,0.0666667,0.933333,0.933333)"/></g></svg>
