<?xml version="1.0" encoding="UTF-8" standalone="yes"?><svg xmlns="http://www.w3.org/2000/svg" xmlns:xlink="http://www.w3.org/1999/xlink" version="1.2" baseProfile="tiny" x="0" y="0" width="255" height="255" viewBox="0 0 256 256"><defs/><defs/><g fill="none" fill-rule="evenodd" stroke="#000000" stroke-width="1" stroke-linejoin="bevel" stroke-linecap="square"><g fill="none" font-family="微软雅黑" font-size="12" font-style="normal" font-weight="400" stroke="#000000" stroke-width="1" stroke-linejoin="bevel" stroke-linecap="square" stroke-opacity="1" transform="matrix(0.0666667,0,0,0.0666667,0.933333,0.933333)"/><g fill="none" font-family="微软雅黑" font-size="12" font-style="normal" font-weight="400" stroke="#000000" stroke-width="1" stroke-linejoin="bevel" stroke-linecap="square" stroke-opacity="1" transform="matrix(0.0666667,0,0,0.0666667,0,0)"/><g fill="none" font-family="微软雅黑" font-size="12" font-style="normal" font-weight="400" stroke="#000000" stroke-width="1" stroke-linejoin="bevel" stroke-linecap="square" stroke-opacity="1" transform="matrix(0.0666667,0,0,0.0666667,0,0)"/><g fill="none" font-family="微软雅黑" font-size="12" font-style="normal" font-weight="400" stroke="#000000" stroke-width="1" stroke-linejoin="bevel" stroke-linecap="square" stroke-opacity="1" transform="matrix(0.0666667,0,0,0.0666667,0,0)"/><g fill="none" font-family="微软雅黑" font-size="12" font-style="normal" font-weight="400" stroke="#000000" stroke-width="1" stroke-linejoin="bevel" stroke-linecap="square" stroke-opacity="1" transform="matrix(0.0666667,0,0,0.0666667,0,0)"/><g fill="none" font-family="微软雅黑" font-size="12" font-style="normal" font-weight="400" stroke="#000000" stroke-width="1" stroke-linejoin="bevel" stroke-linecap="square" stroke-opacity="1" transform="matrix(0.0666667,0,0,0.0666667,0,0)"/><g fill="#333333" fill-opacity="1" font-family="Arial" font-size="16" font-style="normal" font-weight="400" stroke="none" transform="matrix(1.45417,0,0,1.45417,1.99948e-06,1.99948e-06)"><path fill="#ffffff" fill-opacity="1" vector-effect="none" d="M 156.445 0 L 19.5547 0 C 8.75481 0.000982141 0 8.75677 0 19.5564 L 0 156.445 C 0.000982141 167.244 8.75481 175.999 19.5547 176 L 156.445 176 C 167.244 175.999 175.999 167.244 176 156.445 L 176 19.5564 C 176 8.75677 167.245 0.000982141 156.445 0 M 146.66 92.3665 C 146.645 95.0337 144.783 96.9528 142.105 97.0142 C 140.46 97.0518 138.812 97.0142 137.168 97.0238 C 134.243 97.0373 131.982 98.6075 130.892 101.304 C 129.83 103.938 128.731 106.558 127.63 109.175 C 126.643 111.557 127.157 114.295 128.938 116.157 C 130.132 117.37 131.352 118.556 132.546 119.768 C 134.495 121.746 134.51 124.432 132.546 126.404 C 130.506 128.465 128.453 130.516 126.39 132.555 C 124.426 134.495 121.733 134.477 119.752 132.526 C 118.56 131.348 117.396 130.149 116.205 128.971 C 114.336 127.152 111.559 126.63 109.157 127.647 C 106.516 128.765 103.864 129.859 101.204 130.927 C 98.7197 131.897 97.0709 134.275 97.0353 136.942 C 97.0142 138.531 97.0353 140.122 97.0353 141.711 C 97.0142 144.821 95.1776 146.658 92.0893 146.66 L 83.7219 146.66 C 80.9326 146.66 79.0076 144.752 79.0076 141.925 C 78.9971 140.307 79.0076 138.69 79.0076 137.072 C 78.9858 134.267 77.3694 131.965 74.7866 130.921 C 72.125 129.853 69.475 128.758 66.8345 127.637 C 64.455 126.644 61.7129 127.161 59.8578 128.951 C 58.6658 130.13 57.5005 131.322 56.3042 132.487 C 54.2537 134.506 51.5997 134.499 49.5473 132.461 C 47.5273 130.458 45.5151 128.447 43.5086 126.429 C 41.5443 124.441 41.5443 121.715 43.5086 119.725 C 44.6874 118.537 45.8815 117.368 47.0603 116.176 C 48.8768 114.304 49.3948 111.528 48.3761 109.128 C 47.2646 106.513 46.1702 103.891 45.1115 101.257 C 44.067 98.6564 41.8044 97.0469 38.9837 97.0037 C 37.3366 96.9808 35.6908 97.0037 34.045 97.0037 C 31.2694 96.9789 29.3722 95.0855 29.3596 92.3174 C 29.3454 89.4458 29.3454 86.5723 29.3596 83.6979 C 29.3702 80.9481 31.1886 79.0604 33.9386 78.9838 C 35.5835 78.9386 37.2293 78.9838 38.8751 78.9838 C 41.7783 78.9838 44.0525 77.3829 45.1373 74.684 C 46.198 72.0484 47.2982 69.4281 48.4002 66.8134 C 49.3948 64.4339 48.8797 61.6908 47.088 59.8357 C 45.896 58.6245 44.6779 57.4332 43.4855 56.22 C 41.5424 54.2442 41.5424 51.5472 43.4855 49.5829 C 45.5085 47.5418 47.5379 45.5122 49.5741 43.4934 C 51.5796 41.5051 54.2481 41.509 56.2708 43.4934 C 57.4649 44.6722 58.6378 45.8498 59.8301 47.0286 C 61.6964 48.849 64.4742 49.3708 66.8738 48.3513 C 69.4931 47.2415 72.1184 46.1557 74.7493 45.094 C 77.3532 44.0486 78.9664 41.7688 78.9934 38.9616 C 79.0076 37.3435 78.9934 35.7264 78.9934 34.1073 C 79.0155 31.2203 80.8953 29.3366 83.7612 29.3309 C 86.6271 29.3253 89.4574 29.3309 92.2955 29.3309 C 95.0463 29.3309 96.9396 31.1589 97.0105 33.9011 C 97.0574 35.5479 97.0105 37.192 97.0238 38.8398 C 97.0373 41.7631 98.595 44.0142 101.31 45.1056 C 103.944 46.1683 106.562 47.2665 109.179 48.3705 C 111.531 49.3487 114.24 48.8549 116.095 47.1072 C 117.315 45.9286 118.5 44.697 119.711 43.5049 C 121.763 41.4859 124.426 41.4898 126.47 43.5162 C 128.515 45.5439 130.507 47.5361 132.514 49.5549 C 134.522 51.574 134.508 54.2481 132.514 56.2517 C 131.336 57.4401 130.139 58.6081 128.963 59.8004 C 127.148 61.6716 126.625 64.4454 127.635 66.849 C 128.755 69.4895 129.85 72.1405 130.921 74.8001 C 131.888 77.2918 134.277 78.9426 136.95 78.9647 C 138.538 78.9819 140.128 78.9647 141.719 78.9647 C 144.838 78.9858 146.658 80.8089 146.661 83.9061 L 146.661 88.0063 C 146.66 89.465 146.665 90.9151 146.66 92.3665 M 87.731 65.4381 C 75.3008 65.5243 65.32 75.7447 65.4322 88.267 C 65.5427 100.692 75.7209 110.66 88.1749 110.564 C 100.599 110.461 110.654 100.319 110.568 87.9898 C 110.467 75.3028 100.388 65.348 87.7327 65.4362 L 87.731 65.4381"/></g><g fill="none" font-family="微软雅黑" font-size="12" font-style="normal" font-weight="400" stroke="#000000" stroke-width="1" stroke-linejoin="bevel" stroke-linecap="square" stroke-opacity="1" transform="matrix(0.0666667,0,0,0.0666667,0,0)"/><g fill="none" font-family="微软雅黑" font-size="12" font-style="normal" font-weight="400" stroke="#000000" stroke-width="1" stroke-linejoin="bevel" stroke-linecap="square" stroke-opacity="1" transform="matrix(0.0666667,0,0,0.0666667,0,0)"/><g fill="none" font-family="微软雅黑" font-size="12" font-style="normal" font-weight="400" stroke="#000000" stroke-width="1" stroke-linejoin="bevel" stroke-linecap="square" stroke-opacity="1" transform="matrix(0.0666667,0,0,0.0666667,0,0)"/><g fill="none" font-family="微软雅黑" font-size="12" font-style="normal" font-weight="400" stroke="#000000" stroke-width="1" stroke-linejoin="bevel" stroke-linecap="square" stroke-opacity="1" transform="matrix(0.0666667,0,0,0.0666667,0,0)"/><g fill="none" font-family="微软雅黑" font-size="12" font-style="normal" font-weight="400" stroke="#000000" stroke-width="1" stroke-linejoin="bevel" stroke-linecap="square" stroke-opacity="1" transform="matrix(0.0666667,0,0,0.0666667,0,0)"/><g fill="none" font-family="微软雅黑" font-size="12" font-style="normal" font-weight="400" stroke="#000000" stroke-width="1" stroke-linejoin="bevel" stroke-linecap="square" stroke-opacity="1" transform="matrix(0.0666667,0,0,0.0666667,0,0)"/><g fill="none" font-family="微软雅黑" font-size="12" font-style="normal" font-weight="400" stroke="#000000" stroke-width="1" stroke-linejoin="bevel" stroke-linecap="square" stroke-opacity="1" transform="matrix(0.0666667,0,0,0.0666667,0.933333,0.933333)"/></g></svg>
