<?xml version="1.0" encoding="UTF-8" standalone="yes"?><svg xmlns="http://www.w3.org/2000/svg" xmlns:xlink="http://www.w3.org/1999/xlink" version="1.2" baseProfile="tiny" x="0" y="0" width="255" height="255" viewBox="0 0 256 256"><defs/><defs/><g fill="none" fill-rule="evenodd" stroke="#000000" stroke-width="1" stroke-linejoin="bevel" stroke-linecap="square"><g fill="none" font-family="微软雅黑" font-size="12" font-style="normal" font-weight="400" stroke="#000000" stroke-width="1" stroke-linejoin="bevel" stroke-linecap="square" stroke-opacity="1" transform="matrix(0.0666667,0,0,0.0666667,0.933333,0.933333)"/><g fill="none" font-family="微软雅黑" font-size="12" font-style="normal" font-weight="400" stroke="#000000" stroke-width="1" stroke-linejoin="bevel" stroke-linecap="square" stroke-opacity="1" transform="matrix(0.0666667,0,0,0.0666667,0,0)"/><g fill="none" font-family="微软雅黑" font-size="12" font-style="normal" font-weight="400" stroke="#000000" stroke-width="1" stroke-linejoin="bevel" stroke-linecap="square" stroke-opacity="1" transform="matrix(0.0666667,0,0,0.0666667,0,0)"/><g fill="none" font-family="微软雅黑" font-size="12" font-style="normal" font-weight="400" stroke="#000000" stroke-width="1" stroke-linejoin="bevel" stroke-linecap="square" stroke-opacity="1" transform="matrix(0.0666667,0,0,0.0666667,0,0)"/><g fill="none" font-family="微软雅黑" font-size="12" font-style="normal" font-weight="400" stroke="#000000" stroke-width="1" stroke-linejoin="bevel" stroke-linecap="square" stroke-opacity="1" transform="matrix(0.0666667,0,0,0.0666667,0,0)"/><g fill="none" font-family="微软雅黑" font-size="12" font-style="normal" font-weight="400" stroke="#000000" stroke-width="1" stroke-linejoin="bevel" stroke-linecap="square" stroke-opacity="1" transform="matrix(0.0666667,0,0,0.0666667,0,0)"/><g fill="#333333" fill-opacity="1" font-family="Arial" font-size="16" font-style="normal" font-weight="400" stroke="none" transform="matrix(7.27121,0,0,7.27121,48.86,-0.581667)"><path fill="#ffffff" fill-opacity="1" vector-effect="none" d="M 19.119 0.0799958 C 2.79985 0.0799958 2.79985 0.0799958 2.79985 0.0799958 C 1.31993 0.0799958 0.0799958 1.19994 0.0799958 2.63986 C 0.0799958 32.5983 0.0799958 32.5983 0.0799958 32.5983 C 0.0799958 34.0782 1.31993 35.2782 2.79985 35.2782 C 19.119 35.2782 19.119 35.2782 19.119 35.2782 C 20.5989 35.2782 21.6789 34.0782 21.6789 32.5983 C 21.6789 2.63986 21.6789 2.63986 21.6789 2.63986 C 21.6789 1.19994 20.5989 0.0799958 19.119 0.0799958 M 10.8794 33.4783 C 10.0395 33.4783 9.31952 32.7583 9.31952 31.8783 C 9.31952 30.9184 10.0395 30.1984 10.8794 30.1984 C 11.8794 30.1984 12.5993 30.9184 12.5993 31.8783 C 12.5993 32.7583 11.8794 33.4783 10.8794 33.4783 M 19.719 28.4785 C 2.07989 28.4785 2.07989 28.4785 2.07989 28.4785 C 2.07989 6.91964 2.07989 6.91964 2.07989 6.91964 C 19.719 6.91964 19.719 6.91964 19.719 6.91964 L 19.719 28.4785"/></g><g fill="none" font-family="微软雅黑" font-size="12" font-style="normal" font-weight="400" stroke="#000000" stroke-width="1" stroke-linejoin="bevel" stroke-linecap="square" stroke-opacity="1" transform="matrix(0.0666667,0,0,0.0666667,0,0)"/><g fill="none" font-family="微软雅黑" font-size="12" font-style="normal" font-weight="400" stroke="#000000" stroke-width="1" stroke-linejoin="bevel" stroke-linecap="square" stroke-opacity="1" transform="matrix(0.0666667,0,0,0.0666667,0,0)"/><g fill="none" font-family="微软雅黑" font-size="12" font-style="normal" font-weight="400" stroke="#000000" stroke-width="1" stroke-linejoin="bevel" stroke-linecap="square" stroke-opacity="1" transform="matrix(0.0666667,0,0,0.0666667,0,0)"/><g fill="none" font-family="微软雅黑" font-size="12" font-style="normal" font-weight="400" stroke="#000000" stroke-width="1" stroke-linejoin="bevel" stroke-linecap="square" stroke-opacity="1" transform="matrix(0.0666667,0,0,0.0666667,0,0)"/><g fill="none" font-family="微软雅黑" font-size="12" font-style="normal" font-weight="400" stroke="#000000" stroke-width="1" stroke-linejoin="bevel" stroke-linecap="square" stroke-opacity="1" transform="matrix(0.0666667,0,0,0.0666667,0,0)"/><g fill="none" font-family="微软雅黑" font-size="12" font-style="normal" font-weight="400" stroke="#000000" stroke-width="1" stroke-linejoin="bevel" stroke-linecap="square" stroke-opacity="1" transform="matrix(0.0666667,0,0,0.0666667,0,0)"/><g fill="none" font-family="微软雅黑" font-size="12" font-style="normal" font-weight="400" stroke="#000000" stroke-width="1" stroke-linejoin="bevel" stroke-linecap="square" stroke-opacity="1" transform="matrix(0.0666667,0,0,0.0666667,0.933333,0.933333)"/></g></svg>
