<?xml version="1.0" encoding="UTF-8" standalone="yes"?><svg xmlns="http://www.w3.org/2000/svg" xmlns:xlink="http://www.w3.org/1999/xlink" version="1.2" baseProfile="tiny" x="0" y="0" width="255" height="255" viewBox="0 0 256 256"><defs/><defs/><g fill="none" fill-rule="evenodd" stroke="#000000" stroke-width="1" stroke-linejoin="bevel" stroke-linecap="square"><g fill="none" font-family="微软雅黑" font-size="12" font-style="normal" font-weight="400" stroke="#000000" stroke-width="1" stroke-linejoin="bevel" stroke-linecap="square" stroke-opacity="1" transform="matrix(0.0666667,0,0,0.0666667,0.933333,0.933333)"/><g fill="none" font-family="微软雅黑" font-size="12" font-style="normal" font-weight="400" stroke="#000000" stroke-width="1" stroke-linejoin="bevel" stroke-linecap="square" stroke-opacity="1" transform="matrix(0.0666667,0,0,0.0666667,0,0)"/><g fill="none" font-family="微软雅黑" font-size="12" font-style="normal" font-weight="400" stroke="#000000" stroke-width="1" stroke-linejoin="bevel" stroke-linecap="square" stroke-opacity="1" transform="matrix(0.0666667,0,0,0.0666667,0,0)"/><g fill="none" font-family="微软雅黑" font-size="12" font-style="normal" font-weight="400" stroke="#000000" stroke-width="1" stroke-linejoin="bevel" stroke-linecap="square" stroke-opacity="1" transform="matrix(0.0666667,0,0,0.0666667,0,0)"/><g fill="none" font-family="微软雅黑" font-size="12" font-style="normal" font-weight="400" stroke="#000000" stroke-width="1" stroke-linejoin="bevel" stroke-linecap="square" stroke-opacity="1" transform="matrix(0.0666667,0,0,0.0666667,0,0)"/><g fill="none" font-family="微软雅黑" font-size="12" font-style="normal" font-weight="400" stroke="#000000" stroke-width="1" stroke-linejoin="bevel" stroke-linecap="square" stroke-opacity="1" transform="matrix(0.0666667,0,0,0.0666667,0,0)"/><g fill="#333333" fill-opacity="1" font-family="Arial" font-size="16" font-style="normal" font-weight="400" stroke="none" transform="matrix(8.32518,0,0,8.32518,-0.667362,38.707)"><path fill="#5b9bd5" fill-opacity="1" vector-effect="none" d="M 30.8223 20.6617 C 30.8223 21.0024 30.1208 21.3631 29.7601 21.3631 C 22.6257 21.3631 22.6257 21.3631 22.6257 21.3631 C 23.3271 21.3631 23.6878 21.0024 23.6878 20.301 C 23.6878 20.301 23.6878 16.0524 20.5014 14.6295 C 19.0184 13.9281 19.0184 13.9281 18.317 13.9281 C 18.317 12.1846 18.317 12.1846 18.317 12.1846 C 18.317 12.1846 17.6156 11.4231 17.2548 9.67955 C 16.8941 9.67955 16.8941 9.31882 16.8941 8.6174 C 16.8941 8.27672 16.5534 7.15445 16.8941 7.15445 C 16.8941 6.45303 16.8941 5.41093 16.8941 5.0502 C 16.8941 3.64737 18.317 2.24453 20.5014 2.24453 C 22.9664 2.24453 24.0285 3.64737 24.3893 5.0502 C 24.3893 5.41093 24.0285 6.45303 24.0285 7.15445 C 24.75 7.15445 24.3893 8.27672 24.3893 8.6174 C 24.3893 9.31882 24.0285 9.67955 23.6878 9.67955 C 23.3271 11.4231 22.6257 12.1846 22.6257 12.1846 C 22.6257 13.9281 22.6257 13.9281 22.6257 13.9281 C 22.6257 13.9281 23.3271 13.9281 25.0907 14.9903 C 27.2751 15.6917 26.5737 14.9903 27.9765 16.0524 C 30.8223 17.0945 30.8223 20.6617 30.8223 20.6617 M 16.5534 14.2889 C 18.6777 14.9903 17.9563 14.6295 19.7399 15.351 C 22.6257 16.7538 22.6257 20.301 22.6257 20.301 C 22.6257 21.0024 21.9042 21.3631 21.5636 21.3631 C 1.16235 21.3631 1.16235 21.3631 1.16235 21.3631 C 0.801619 21.3631 0.0801619 21.0024 0.0801619 20.301 C 0.0801619 20.301 0.0801619 16.7538 2.92591 15.351 C 4.74959 14.6295 3.98805 15.351 6.17247 14.2889 C 8.29676 13.5874 8.99817 13.2267 8.99817 13.2267 C 8.99817 11.0824 8.99817 11.0824 8.99817 11.0824 C 8.99817 11.0824 7.93603 10.381 7.93603 8.6174 C 7.23461 8.6174 7.23461 7.91599 7.23461 7.55526 C 7.23461 7.15445 6.87388 5.75162 7.5753 5.75162 C 7.23461 4.70951 7.23461 4.0081 7.23461 3.64737 C 7.5753 1.84372 8.99817 0.44089 11.1826 0.0801619 C 14.0083 0.44089 15.1306 1.84372 15.4712 3.64737 C 15.4712 4.0081 15.4712 4.70951 15.1306 5.75162 C 15.832 5.75162 15.4712 7.15445 15.4712 7.55526 C 15.4712 7.91599 15.4712 8.6174 14.7698 8.6174 C 14.369 10.381 13.6676 11.0824 13.6676 11.0824 C 13.6676 13.2267 13.6676 13.2267 13.6676 13.2267 C 13.6676 13.2267 14.369 13.2267 16.5534 14.2889"/></g><g fill="none" font-family="微软雅黑" font-size="12" font-style="normal" font-weight="400" stroke="#000000" stroke-width="1" stroke-linejoin="bevel" stroke-linecap="square" stroke-opacity="1" transform="matrix(0.0666667,0,0,0.0666667,0,0)"/><g fill="none" font-family="微软雅黑" font-size="12" font-style="normal" font-weight="400" stroke="#000000" stroke-width="1" stroke-linejoin="bevel" stroke-linecap="square" stroke-opacity="1" transform="matrix(0.0666667,0,0,0.0666667,0,0)"/><g fill="none" font-family="微软雅黑" font-size="12" font-style="normal" font-weight="400" stroke="#000000" stroke-width="1" stroke-linejoin="bevel" stroke-linecap="square" stroke-opacity="1" transform="matrix(0.0666667,0,0,0.0666667,0,0)"/><g fill="none" font-family="微软雅黑" font-size="12" font-style="normal" font-weight="400" stroke="#000000" stroke-width="1" stroke-linejoin="bevel" stroke-linecap="square" stroke-opacity="1" transform="matrix(0.0666667,0,0,0.0666667,0,0)"/><g fill="none" font-family="微软雅黑" font-size="12" font-style="normal" font-weight="400" stroke="#000000" stroke-width="1" stroke-linejoin="bevel" stroke-linecap="square" stroke-opacity="1" transform="matrix(0.0666667,0,0,0.0666667,0,0)"/><g fill="none" font-family="微软雅黑" font-size="12" font-style="normal" font-weight="400" stroke="#000000" stroke-width="1" stroke-linejoin="bevel" stroke-linecap="square" stroke-opacity="1" transform="matrix(0.0666667,0,0,0.0666667,0,0)"/><g fill="none" font-family="微软雅黑" font-size="12" font-style="normal" font-weight="400" stroke="#000000" stroke-width="1" stroke-linejoin="bevel" stroke-linecap="square" stroke-opacity="1" transform="matrix(0.0666667,0,0,0.0666667,0.933333,0.933333)"/></g></svg>
