<?xml version="1.0" encoding="UTF-8" standalone="yes"?><svg xmlns="http://www.w3.org/2000/svg" xmlns:xlink="http://www.w3.org/1999/xlink" version="1.2" baseProfile="tiny" x="0" y="0" width="255" height="255" viewBox="0 0 256 256"><defs/><defs/><g fill="none" fill-rule="evenodd" stroke="#000000" stroke-width="1" stroke-linejoin="bevel" stroke-linecap="square"><g fill="none" font-family="微软雅黑" font-size="12" font-style="normal" font-weight="400" stroke="#000000" stroke-width="1" stroke-linejoin="bevel" stroke-linecap="square" stroke-opacity="1" transform="matrix(0.0666667,0,0,0.0666667,0.933333,0.933333)"/><g fill="none" font-family="微软雅黑" font-size="12" font-style="normal" font-weight="400" stroke="#000000" stroke-width="1" stroke-linejoin="bevel" stroke-linecap="square" stroke-opacity="1" transform="matrix(0.0666667,0,0,0.0666667,0,0)"/><g fill="none" font-family="微软雅黑" font-size="12" font-style="normal" font-weight="400" stroke="#000000" stroke-width="1" stroke-linejoin="bevel" stroke-linecap="square" stroke-opacity="1" transform="matrix(0.0666667,0,0,0.0666667,0,0)"/><g fill="none" font-family="微软雅黑" font-size="12" font-style="normal" font-weight="400" stroke="#000000" stroke-width="1" stroke-linejoin="bevel" stroke-linecap="square" stroke-opacity="1" transform="matrix(0.0666667,0,0,0.0666667,0,0)"/><g fill="none" font-family="微软雅黑" font-size="12" font-style="normal" font-weight="400" stroke="#000000" stroke-width="1" stroke-linejoin="bevel" stroke-linecap="square" stroke-opacity="1" transform="matrix(0.0666667,0,0,0.0666667,0,0)"/><g fill="none" font-family="微软雅黑" font-size="12" font-style="normal" font-weight="400" stroke="#000000" stroke-width="1" stroke-linejoin="bevel" stroke-linecap="square" stroke-opacity="1" transform="matrix(0.0666667,0,0,0.0666667,0,0)"/><g fill="#333333" fill-opacity="1" font-family="Arial" font-size="16" font-style="normal" font-weight="400" stroke="none" transform="matrix(1.33299,0,0,1.33299,-1.39964e-06,-1.39964e-06)"><path fill="#008dfa" fill-opacity="1" vector-effect="none" d="M 113.054 71.8527 L 124.941 54.8758 C 127.586 51.0992 126.668 45.8939 122.891 43.2495 C 119.115 40.6051 113.91 41.523 111.265 45.2996 L 96.1692 66.859 L 81.0731 45.2996 C 78.4287 41.523 73.2234 40.6051 69.4468 43.2495 C 65.6702 45.8939 64.7524 51.0992 67.3968 54.8758 L 79.2842 71.8527 L 62.6087 71.8527 C 57.9983 71.8527 54.2609 75.5902 54.2609 80.2005 C 54.2609 84.8109 57.9983 88.5484 62.6087 88.5484 L 87.6522 88.5484 L 87.6522 101.07 L 70.9565 101.07 C 66.3461 101.07 62.6087 104.808 62.6087 109.418 C 62.6087 114.028 66.3461 117.766 70.9565 117.766 L 87.6522 117.766 L 87.6522 138.635 C 87.6522 143.246 91.3896 146.983 96 146.983 C 100.61 146.983 104.348 143.246 104.348 138.635 L 104.348 117.766 L 121.043 117.766 C 125.654 117.766 129.391 114.028 129.391 109.418 C 129.391 104.808 125.654 101.07 121.043 101.07 L 104.348 101.07 L 104.348 88.5484 L 129.391 88.5484 C 134.002 88.5484 137.739 84.8109 137.739 80.2005 C 137.739 75.5902 134.002 71.8527 129.391 71.8527 L 113.054 71.8527 M 96 192 C 42.9807 192 0 149.019 0 96 C 0 42.9807 42.9807 0 96 0 C 149.019 0 192 42.9807 192 96 C 192 149.019 149.019 192 96 192"/></g><g fill="none" font-family="微软雅黑" font-size="12" font-style="normal" font-weight="400" stroke="#000000" stroke-width="1" stroke-linejoin="bevel" stroke-linecap="square" stroke-opacity="1" transform="matrix(0.0666667,0,0,0.0666667,0,0)"/><g fill="none" font-family="微软雅黑" font-size="12" font-style="normal" font-weight="400" stroke="#000000" stroke-width="1" stroke-linejoin="bevel" stroke-linecap="square" stroke-opacity="1" transform="matrix(0.0666667,0,0,0.0666667,0,0)"/><g fill="none" font-family="微软雅黑" font-size="12" font-style="normal" font-weight="400" stroke="#000000" stroke-width="1" stroke-linejoin="bevel" stroke-linecap="square" stroke-opacity="1" transform="matrix(0.0666667,0,0,0.0666667,0,0)"/><g fill="none" font-family="微软雅黑" font-size="12" font-style="normal" font-weight="400" stroke="#000000" stroke-width="1" stroke-linejoin="bevel" stroke-linecap="square" stroke-opacity="1" transform="matrix(0.0666667,0,0,0.0666667,0,0)"/><g fill="none" font-family="微软雅黑" font-size="12" font-style="normal" font-weight="400" stroke="#000000" stroke-width="1" stroke-linejoin="bevel" stroke-linecap="square" stroke-opacity="1" transform="matrix(0.0666667,0,0,0.0666667,0,0)"/><g fill="none" font-family="微软雅黑" font-size="12" font-style="normal" font-weight="400" stroke="#000000" stroke-width="1" stroke-linejoin="bevel" stroke-linecap="square" stroke-opacity="1" transform="matrix(0.0666667,0,0,0.0666667,0,0)"/><g fill="none" font-family="微软雅黑" font-size="12" font-style="normal" font-weight="400" stroke="#000000" stroke-width="1" stroke-linejoin="bevel" stroke-linecap="square" stroke-opacity="1" transform="matrix(0.0666667,0,0,0.0666667,0.933333,0.933333)"/></g></svg>
