<?xml version="1.0" encoding="UTF-8" standalone="yes"?><svg xmlns="http://www.w3.org/2000/svg" xmlns:xlink="http://www.w3.org/1999/xlink" version="1.2" baseProfile="tiny" x="0" y="0" width="255" height="255" viewBox="0 0 256 256"><defs/><defs/><g fill="none" fill-rule="evenodd" stroke="#000000" stroke-width="1" stroke-linejoin="bevel" stroke-linecap="square"><g fill="none" font-family="微软雅黑" font-size="12" font-style="normal" font-weight="400" stroke="#000000" stroke-width="1" stroke-linejoin="bevel" stroke-linecap="square" stroke-opacity="1" transform="matrix(0.0666667,0,0,0.0666667,0.933333,0.933333)"/><g fill="none" font-family="微软雅黑" font-size="12" font-style="normal" font-weight="400" stroke="#000000" stroke-width="1" stroke-linejoin="bevel" stroke-linecap="square" stroke-opacity="1" transform="matrix(0.0666667,0,0,0.0666667,0,0)"/><g fill="none" font-family="微软雅黑" font-size="12" font-style="normal" font-weight="400" stroke="#000000" stroke-width="1" stroke-linejoin="bevel" stroke-linecap="square" stroke-opacity="1" transform="matrix(0.0666667,0,0,0.0666667,0,0)"/><g fill="none" font-family="微软雅黑" font-size="12" font-style="normal" font-weight="400" stroke="#000000" stroke-width="1" stroke-linejoin="bevel" stroke-linecap="square" stroke-opacity="1" transform="matrix(0.0666667,0,0,0.0666667,0,0)"/><g fill="none" font-family="微软雅黑" font-size="12" font-style="normal" font-weight="400" stroke="#000000" stroke-width="1" stroke-linejoin="bevel" stroke-linecap="square" stroke-opacity="1" transform="matrix(0.0666667,0,0,0.0666667,0,0)"/><g fill="none" font-family="微软雅黑" font-size="12" font-style="normal" font-weight="400" stroke="#000000" stroke-width="1" stroke-linejoin="bevel" stroke-linecap="square" stroke-opacity="1" transform="matrix(0.0666667,0,0,0.0666667,0,0)"/><g fill="#333333" fill-opacity="1" font-family="Arial" font-size="16" font-style="normal" font-weight="400" stroke="none" transform="matrix(1.34773,0,0,1.34773,-44.5578,-44.475)"><path fill="#5b9bd5" fill-opacity="1" vector-effect="none" d="M 199.5 200.2 C 199.5 192.6 198.2 186.3 197 179.9 C 197 173.6 191.9 167.2 186.9 164.7 C 174.2 158.4 161.6 154.6 148.9 153.3 C 147.6 150.8 147.6 149.5 147.6 147 C 162.8 144.5 179.3 140.7 174.2 138.1 C 171.7 138.1 169.1 134.3 167.9 128 C 169.2 128 169.2 126.7 169.2 125.5 C 173 124.2 175.5 120.4 178.1 115.4 C 181.9 116.7 181.9 116.7 181.9 116.7 C 183.2 115.4 184.4 114.2 184.4 112.9 C 185.7 106.6 185.7 106.6 185.7 106.6 C 185.7 104.1 184.4 102.8 181.9 101.5 C 180.6 101.5 180.6 101.5 179.4 102.8 C 179.4 100.3 178.1 97.7 176.9 96.5 C 178.2 94 179.4 90.2 180.7 87.6 C 182 78.7 180.7 69.9 176.9 61 C 176.9 61 176.9 59.7 176.9 58.5 C 167.8 43.1 150 33 128.5 33 C 108.2 33 89.2 43.1 81.6 58.3 C 80.3 59.6 80.3 60.8 80.3 60.8 C 76.5 69.7 75.2 78.5 77.8 87.4 C 79.1 89.9 79.1 93.7 80.3 96.3 C 80.3 97.6 79 100.1 79 102.6 C 77.7 101.3 76.5 101.3 75.2 101.3 C 73.9 102.6 72.7 103.8 72.7 106.4 C 74 112.7 74 112.7 74 112.7 C 74 115.2 76.5 116.5 79.1 116.5 L 80.4 115.2 C 81.7 120.3 85.5 124.1 88 125.3 C 89.3 127.8 90.5 129.1 91.8 130.4 C 90.5 136.7 88 141.8 84.2 143.1 C 81.7 144.4 94.3 145.6 109.5 146.9 C 108.2 149.4 108.2 150.7 108.2 153.2 C 95.5 154.5 82.9 158.3 68.9 164.6 C 63.8 167.1 60 173.5 58.8 179.8 C 57.5 186.1 57.5 192.5 56.3 200.1 C 56.3 205.2 58.8 211.5 63.9 212.8 C 85.4 219.1 107 222.9 128.5 222.9 C 150 222.9 171.6 219.1 191.8 212.8 C 196.9 211.6 200.7 205.3 199.5 200.2 M 141.2 173.6 C 137.4 176.1 133.6 177.4 128.5 177.4 C 123.4 177.4 118.4 176.1 115.8 173.6 C 113.3 171.1 113.3 167.3 113.3 164.7 L 113.3 163.4 C 114.6 152 114.6 152 114.6 152 C 115.9 153.3 117.1 153.3 117.1 153.3 C 120.9 154.6 124.7 155.8 128.5 155.8 C 132.3 155.8 134.8 154.5 138.6 153.3 C 139.9 153.3 141.1 153.3 141.1 152 C 142.4 163.4 142.4 163.4 142.4 163.4 L 142.4 164.7 C 143.7 167.3 143.7 171.1 141.2 173.6 M 85.4 86.2 C 82.9 78.6 84.2 71 88 63.4 C 89.3 63.4 90.5 62.1 90.5 62.1 C 98.1 49.4 113.3 41.8 128.5 41.8 C 145 41.8 160.2 49.4 166.5 62.1 C 167.8 62.1 169 63.4 170.3 63.4 C 172.8 71 174.1 78.6 172.8 86.2 C 171.5 86.2 171.5 86.2 171.5 86.2 L 170.2 86.2 C 171.5 71 163.9 60.9 160.1 57.1 C 152.5 50.8 141.1 47 129.7 47 C 118.3 47 108.2 50.8 100.6 55.9 C 100.6 57.2 99.3 57.2 99.3 57.2 C 96.8 58.5 94.2 62.3 91.7 66.1 C 89.2 71.2 86.6 78.8 86.6 86.4 L 85.4 86.4 L 85.4 86.2 M 105.7 138.1 C 104.4 134.3 103.2 130.5 103.2 126.7 C 101.9 126.7 100.7 126.7 100.7 125.4 C 98.2 112.7 98.2 112.7 98.2 112.7 C 96.9 111.4 98.2 110.2 99.5 108.9 C 99.5 106.4 98.2 103.8 98.2 100 C 98.2 100 98.2 98.7 98.2 97.5 C 107.1 96.2 114.7 91.2 119.7 83.6 C 128.6 92.5 142.5 97.5 157.7 98.8 C 157.7 100.1 157.7 100.1 157.7 100.1 C 157.7 103.9 157.7 106.4 156.4 109 C 157.7 110.3 158.9 111.5 158.9 112.8 C 155.1 125.5 155.1 125.5 155.1 125.5 C 155.1 126.8 155.1 126.8 153.8 126.8 C 153.8 128.1 153.8 128.1 153.8 128.1 C 151.3 129.4 143.7 130.6 138.6 131.9 C 137.3 130.6 133.5 129.4 129.7 129.4 C 125.9 129.4 122.1 131.9 122.1 137 C 123.4 140.8 127.2 142.1 132.2 140.8 C 134.7 139.5 138.5 137 138.5 135.7 C 143.6 134.4 148.6 133.2 152.4 131.9 C 152.4 134.4 151.1 135.7 151.1 138.2 C 149.8 139.5 148.6 142 146 144.5 C 146 144.5 146 144.5 146 145.8 C 144.7 145.8 144.7 145.8 144.7 145.8 C 144.7 145.8 144.7 145.8 143.4 147.1 C 142.1 147.1 142.1 147.1 142.1 148.4 L 140.8 148.4 L 139.5 148.4 C 135.7 149.7 131.9 150.9 128.1 150.9 C 124.3 150.9 120.5 149.6 116.7 148.4 C 115.4 148.4 114.2 148.4 112.9 147.1 C 112.9 147.1 112.9 147.1 111.6 147.1 C 111.6 147.1 111.6 147.1 111.6 145.8 C 110.3 145.8 110.3 144.5 109.1 144.5 C 107 141.9 105.7 139.4 105.7 138.1"/></g><g fill="none" font-family="微软雅黑" font-size="12" font-style="normal" font-weight="400" stroke="#000000" stroke-width="1" stroke-linejoin="bevel" stroke-linecap="square" stroke-opacity="1" transform="matrix(0.0666667,0,0,0.0666667,0,0)"/><g fill="none" font-family="微软雅黑" font-size="12" font-style="normal" font-weight="400" stroke="#000000" stroke-width="1" stroke-linejoin="bevel" stroke-linecap="square" stroke-opacity="1" transform="matrix(0.0666667,0,0,0.0666667,0,0)"/><g fill="none" font-family="微软雅黑" font-size="12" font-style="normal" font-weight="400" stroke="#000000" stroke-width="1" stroke-linejoin="bevel" stroke-linecap="square" stroke-opacity="1" transform="matrix(0.0666667,0,0,0.0666667,0,0)"/><g fill="none" font-family="微软雅黑" font-size="12" font-style="normal" font-weight="400" stroke="#000000" stroke-width="1" stroke-linejoin="bevel" stroke-linecap="square" stroke-opacity="1" transform="matrix(0.0666667,0,0,0.0666667,0,0)"/><g fill="none" font-family="微软雅黑" font-size="12" font-style="normal" font-weight="400" stroke="#000000" stroke-width="1" stroke-linejoin="bevel" stroke-linecap="square" stroke-opacity="1" transform="matrix(0.0666667,0,0,0.0666667,0,0)"/><g fill="none" font-family="微软雅黑" font-size="12" font-style="normal" font-weight="400" stroke="#000000" stroke-width="1" stroke-linejoin="bevel" stroke-linecap="square" stroke-opacity="1" transform="matrix(0.0666667,0,0,0.0666667,0,0)"/><g fill="none" font-family="微软雅黑" font-size="12" font-style="normal" font-weight="400" stroke="#000000" stroke-width="1" stroke-linejoin="bevel" stroke-linecap="square" stroke-opacity="1" transform="matrix(0.0666667,0,0,0.0666667,0.933333,0.933333)"/></g></svg>
