<?xml version="1.0" encoding="UTF-8" standalone="yes"?><svg xmlns="http://www.w3.org/2000/svg" xmlns:xlink="http://www.w3.org/1999/xlink" version="1.2" baseProfile="tiny" x="0" y="0" width="255" height="255" viewBox="0 0 256 256"><defs/><defs/><g fill="none" fill-rule="evenodd" stroke="#000000" stroke-width="1" stroke-linejoin="bevel" stroke-linecap="square"><g fill="none" font-family="微软雅黑" font-size="12" font-style="normal" font-weight="400" stroke="#000000" stroke-width="1" stroke-linejoin="bevel" stroke-linecap="square" stroke-opacity="1" transform="matrix(0.0666667,0,0,0.0666667,0.933333,0.933333)"/><g fill="none" font-family="微软雅黑" font-size="12" font-style="normal" font-weight="400" stroke="#000000" stroke-width="1" stroke-linejoin="bevel" stroke-linecap="square" stroke-opacity="1" transform="matrix(0.0666667,0,0,0.0666667,0,0)"/><g fill="none" font-family="微软雅黑" font-size="12" font-style="normal" font-weight="400" stroke="#000000" stroke-width="1" stroke-linejoin="bevel" stroke-linecap="square" stroke-opacity="1" transform="matrix(0.0666667,0,0,0.0666667,0,0)"/><g fill="none" font-family="微软雅黑" font-size="12" font-style="normal" font-weight="400" stroke="#000000" stroke-width="1" stroke-linejoin="bevel" stroke-linecap="square" stroke-opacity="1" transform="matrix(0.0666667,0,0,0.0666667,0,0)"/><g fill="none" font-family="微软雅黑" font-size="12" font-style="normal" font-weight="400" stroke="#000000" stroke-width="1" stroke-linejoin="bevel" stroke-linecap="square" stroke-opacity="1" transform="matrix(0.0666667,0,0,0.0666667,0,0)"/><g fill="none" font-family="微软雅黑" font-size="12" font-style="normal" font-weight="400" stroke="#000000" stroke-width="1" stroke-linejoin="bevel" stroke-linecap="square" stroke-opacity="1" transform="matrix(0.0666667,0,0,0.0666667,0,0)"/><g fill="#333333" fill-opacity="1" font-family="Arial" font-size="16" font-style="normal" font-weight="400" stroke="none" transform="matrix(12.3599,0,0,12.3599,1.00627,0)"><path fill="#5b9bd5" fill-opacity="1" vector-effect="none" d="M 8.35938 8.01619 L 11.2452 4.4089 L 9.96262 0.961943 L 8.35938 8.01619 Z"/></g><g fill="#333333" fill-opacity="1" font-family="Arial" font-size="16" font-style="normal" font-weight="400" stroke="none" transform="matrix(12.3599,0,0,12.3599,1.00627,0)"><path fill="#5b9bd5" fill-opacity="1" vector-effect="none" d="M 11.8063 3.84777 L 13.6501 0 L 10.2833 0.641295 L 11.8063 3.84777 Z"/></g><g fill="#333333" fill-opacity="1" font-family="Arial" font-size="16" font-style="normal" font-weight="400" stroke="none" transform="matrix(12.3599,0,0,12.3599,1.00627,0)"><path fill="#5b9bd5" fill-opacity="1" vector-effect="none" d="M 12.2072 4.57925 L 16.2152 8.65749 L 20.3837 6.70354 L 14.131 0.320648 L 12.2072 4.57925 Z"/></g><g fill="#333333" fill-opacity="1" font-family="Arial" font-size="16" font-style="normal" font-weight="400" stroke="none" transform="matrix(12.3599,0,0,12.3599,1.00627,0)"><path fill="#5b9bd5" fill-opacity="1" vector-effect="none" d="M 20.063 10.2607 L 20.544 7.21457 L 16.6962 8.97813 L 20.063 10.2607 Z"/></g><g fill="#333333" fill-opacity="1" font-family="Arial" font-size="16" font-style="normal" font-weight="400" stroke="none" transform="matrix(12.3599,0,0,12.3599,1.00627,0)"><path fill="#5b9bd5" fill-opacity="1" vector-effect="none" d="M 8.35938 8.90799 L 11.8865 12.5053 L 15.8946 8.90799 L 11.8865 4.64939 L 8.35938 8.90799 Z"/></g><g fill="#333333" fill-opacity="1" font-family="Arial" font-size="16" font-style="normal" font-weight="400" stroke="none" transform="matrix(12.3599,0,0,12.3599,1.00627,0)"><path fill="#5b9bd5" fill-opacity="1" vector-effect="none" d="M 12.6881 12.3449 L 19.7424 10.7417 L 16.3756 9.29878 L 12.6881 12.3449 Z"/></g><g fill="#333333" fill-opacity="1" font-family="Arial" font-size="16" font-style="normal" font-weight="400" stroke="none" transform="matrix(12.3599,0,0,12.3599,1.00627,0)"><path fill="#5b9bd5" fill-opacity="1" vector-effect="none" d="M 1.85625 9.68957 C -0.61875 12.3349 -0.61875 16.3931 1.85625 18.8581 C 4.33125 21.3231 8.38944 21.3231 10.8644 18.8581 C 13.3294 16.3931 13.3294 12.3349 10.8644 9.68957 C 8.38944 7.21457 4.33125 7.21457 1.85625 9.68957 M 9.98266 17.9763 C 8.03874 19.9202 4.68196 19.9202 2.73803 17.9763 C 0.794104 15.862 0.794104 12.6856 2.73803 10.7417 C 4.68196 8.62742 8.03874 8.62742 9.98266 10.7417 C 12.0969 12.6856 12.0969 15.862 9.98266 17.9763"/></g><g fill="none" font-family="微软雅黑" font-size="12" font-style="normal" font-weight="400" stroke="#000000" stroke-width="1" stroke-linejoin="bevel" stroke-linecap="square" stroke-opacity="1" transform="matrix(0.0666667,0,0,0.0666667,0,0)"/><g fill="none" font-family="微软雅黑" font-size="12" font-style="normal" font-weight="400" stroke="#000000" stroke-width="1" stroke-linejoin="bevel" stroke-linecap="square" stroke-opacity="1" transform="matrix(0.0666667,0,0,0.0666667,0,0)"/><g fill="none" font-family="微软雅黑" font-size="12" font-style="normal" font-weight="400" stroke="#000000" stroke-width="1" stroke-linejoin="bevel" stroke-linecap="square" stroke-opacity="1" transform="matrix(0.0666667,0,0,0.0666667,0,0)"/><g fill="none" font-family="微软雅黑" font-size="12" font-style="normal" font-weight="400" stroke="#000000" stroke-width="1" stroke-linejoin="bevel" stroke-linecap="square" stroke-opacity="1" transform="matrix(0.0666667,0,0,0.0666667,0,0)"/><g fill="none" font-family="微软雅黑" font-size="12" font-style="normal" font-weight="400" stroke="#000000" stroke-width="1" stroke-linejoin="bevel" stroke-linecap="square" stroke-opacity="1" transform="matrix(0.0666667,0,0,0.0666667,0,0)"/><g fill="none" font-family="微软雅黑" font-size="12" font-style="normal" font-weight="400" stroke="#000000" stroke-width="1" stroke-linejoin="bevel" stroke-linecap="square" stroke-opacity="1" transform="matrix(0.0666667,0,0,0.0666667,0,0)"/><g fill="none" font-family="微软雅黑" font-size="12" font-style="normal" font-weight="400" stroke="#000000" stroke-width="1" stroke-linejoin="bevel" stroke-linecap="square" stroke-opacity="1" transform="matrix(0.0666667,0,0,0.0666667,0.933333,0.933333)"/></g></svg>
