<?xml version="1.0" encoding="UTF-8" standalone="yes"?><svg xmlns="http://www.w3.org/2000/svg" xmlns:xlink="http://www.w3.org/1999/xlink" version="1.2" baseProfile="tiny" x="0" y="0" width="255" height="255" viewBox="0 0 256 256"><defs/><defs/><g fill="none" fill-rule="evenodd" stroke="#000000" stroke-width="1" stroke-linejoin="bevel" stroke-linecap="square"><g fill="none" font-family="微软雅黑" font-size="12" font-style="normal" font-weight="400" stroke="#000000" stroke-width="1" stroke-linejoin="bevel" stroke-linecap="square" stroke-opacity="1" transform="matrix(0.0666667,0,0,0.0666667,0.933333,0.933333)"/><g fill="none" font-family="微软雅黑" font-size="12" font-style="normal" font-weight="400" stroke="#000000" stroke-width="1" stroke-linejoin="bevel" stroke-linecap="square" stroke-opacity="1" transform="matrix(0.0666667,0,0,0.0666667,0,0)"/><g fill="none" font-family="微软雅黑" font-size="12" font-style="normal" font-weight="400" stroke="#000000" stroke-width="1" stroke-linejoin="bevel" stroke-linecap="square" stroke-opacity="1" transform="matrix(0.0666667,0,0,0.0666667,0,0)"/><g fill="none" font-family="微软雅黑" font-size="12" font-style="normal" font-weight="400" stroke="#000000" stroke-width="1" stroke-linejoin="bevel" stroke-linecap="square" stroke-opacity="1" transform="matrix(0.0666667,0,0,0.0666667,0,0)"/><g fill="none" font-family="微软雅黑" font-size="12" font-style="normal" font-weight="400" stroke="#000000" stroke-width="1" stroke-linejoin="bevel" stroke-linecap="square" stroke-opacity="1" transform="matrix(0.0666667,0,0,0.0666667,0,0)"/><g fill="none" font-family="微软雅黑" font-size="12" font-style="normal" font-weight="400" stroke="#000000" stroke-width="1" stroke-linejoin="bevel" stroke-linecap="square" stroke-opacity="1" transform="matrix(0.0666667,0,0,0.0666667,0,0)"/><g fill="#333333" fill-opacity="1" font-family="Arial" font-size="16" font-style="normal" font-weight="400" stroke="none" transform="matrix(1.33333,0,0,1.33333,-7.99792e-07,-0.234572)"><path fill="#5b9bd5" fill-opacity="1" vector-effect="none" d="M 152.574 88.0362 C 148.054 95.2275 141.014 100.479 132.827 102.768 L 132.194 102.947 C 130.903 103.331 129.564 103.535 128.216 103.551 C 122.368 103.551 119.066 99.6075 120.841 94.7282 C 122.135 91.1688 125.547 88.159 129.716 86.7573 C 136.156 84.4216 140.67 79.0617 140.67 72.8229 C 140.67 64.4254 132.482 57.6096 122.382 57.6096 C 112.281 57.6096 104.107 64.4254 104.107 72.8229 L 104.107 119.479 C 104.107 130.721 97.5985 140.561 87.87 146.113 C 82.2942 149.284 75.9841 150.943 69.568 150.923 C 50.5502 150.923 35.0561 136.823 35.0561 119.479 C 35.0561 113.982 36.6249 108.788 39.3769 104.28 C 43.6427 97.2849 50.7432 91.9386 59.2471 89.5067 L 59.2746 89.5067 C 60.6899 89.0545 62.1654 88.8175 63.6505 88.8057 C 69.5403 88.8057 72.87 92.777 71.0816 97.6691 C 69.8711 100.982 66.6091 103.854 62.8248 105.366 C 62.374 105.514 61.9291 105.679 61.4901 105.86 C 55.4487 108.348 51.3071 113.515 51.3071 119.493 C 51.3071 127.89 59.4812 134.706 69.5816 134.706 C 79.6684 134.706 87.8564 127.89 87.8564 119.493 L 87.8564 72.8229 C 87.8564 61.6081 94.3788 51.7688 104.093 46.1885 C 109.669 43.0166 115.979 41.3583 122.396 41.3789 C 141.427 41.3789 156.921 55.4784 156.921 72.8229 C 156.909 78.1976 155.405 83.4644 152.574 88.0351 M 95.9753 0.301714 C 42.9694 0.301714 0 43.2151 0 96.1515 C 0 149.087 42.9694 192 95.9753 192 C 148.98 192 191.95 149.087 191.95 96.1515 C 191.95 43.2151 148.98 0.301714 95.9753 0.301714"/></g><g fill="none" font-family="微软雅黑" font-size="12" font-style="normal" font-weight="400" stroke="#000000" stroke-width="1" stroke-linejoin="bevel" stroke-linecap="square" stroke-opacity="1" transform="matrix(0.0666667,0,0,0.0666667,0,0)"/><g fill="none" font-family="微软雅黑" font-size="12" font-style="normal" font-weight="400" stroke="#000000" stroke-width="1" stroke-linejoin="bevel" stroke-linecap="square" stroke-opacity="1" transform="matrix(0.0666667,0,0,0.0666667,0,0)"/><g fill="none" font-family="微软雅黑" font-size="12" font-style="normal" font-weight="400" stroke="#000000" stroke-width="1" stroke-linejoin="bevel" stroke-linecap="square" stroke-opacity="1" transform="matrix(0.0666667,0,0,0.0666667,0,0)"/><g fill="none" font-family="微软雅黑" font-size="12" font-style="normal" font-weight="400" stroke="#000000" stroke-width="1" stroke-linejoin="bevel" stroke-linecap="square" stroke-opacity="1" transform="matrix(0.0666667,0,0,0.0666667,0,0)"/><g fill="none" font-family="微软雅黑" font-size="12" font-style="normal" font-weight="400" stroke="#000000" stroke-width="1" stroke-linejoin="bevel" stroke-linecap="square" stroke-opacity="1" transform="matrix(0.0666667,0,0,0.0666667,0,0)"/><g fill="none" font-family="微软雅黑" font-size="12" font-style="normal" font-weight="400" stroke="#000000" stroke-width="1" stroke-linejoin="bevel" stroke-linecap="square" stroke-opacity="1" transform="matrix(0.0666667,0,0,0.0666667,0,0)"/><g fill="none" font-family="微软雅黑" font-size="12" font-style="normal" font-weight="400" stroke="#000000" stroke-width="1" stroke-linejoin="bevel" stroke-linecap="square" stroke-opacity="1" transform="matrix(0.0666667,0,0,0.0666667,0.933333,0.933333)"/></g></svg>
