<?xml version="1.0" encoding="UTF-8" standalone="yes"?><svg xmlns="http://www.w3.org/2000/svg" xmlns:xlink="http://www.w3.org/1999/xlink" version="1.2" baseProfile="tiny" x="0" y="0" width="255" height="255" viewBox="0 0 256 256"><defs/><defs/><g fill="none" fill-rule="evenodd" stroke="#000000" stroke-width="1" stroke-linejoin="bevel" stroke-linecap="square"><g fill="none" font-family="微软雅黑" font-size="12" font-style="normal" font-weight="400" stroke="#000000" stroke-width="1" stroke-linejoin="bevel" stroke-linecap="square" stroke-opacity="1" transform="matrix(0.0666667,0,0,0.0666667,0.933333,0.933333)"/><g fill="none" font-family="微软雅黑" font-size="12" font-style="normal" font-weight="400" stroke="#000000" stroke-width="1" stroke-linejoin="bevel" stroke-linecap="square" stroke-opacity="1" transform="matrix(0.0666667,0,0,0.0666667,0,0)"/><g fill="none" font-family="微软雅黑" font-size="12" font-style="normal" font-weight="400" stroke="#000000" stroke-width="1" stroke-linejoin="bevel" stroke-linecap="square" stroke-opacity="1" transform="matrix(0.0666667,0,0,0.0666667,0,0)"/><g fill="none" font-family="微软雅黑" font-size="12" font-style="normal" font-weight="400" stroke="#000000" stroke-width="1" stroke-linejoin="bevel" stroke-linecap="square" stroke-opacity="1" transform="matrix(0.0666667,0,0,0.0666667,0,0)"/><g fill="none" font-family="微软雅黑" font-size="12" font-style="normal" font-weight="400" stroke="#000000" stroke-width="1" stroke-linejoin="bevel" stroke-linecap="square" stroke-opacity="1" transform="matrix(0.0666667,0,0,0.0666667,0,0)"/><g fill="none" font-family="微软雅黑" font-size="12" font-style="normal" font-weight="400" stroke="#000000" stroke-width="1" stroke-linejoin="bevel" stroke-linecap="square" stroke-opacity="1" transform="matrix(0.0666667,0,0,0.0666667,0,0)"/><g fill="#000000" fill-opacity="1" font-family="Arial" font-size="16" font-style="normal" font-weight="400" stroke="#000000" stroke-width="1" stroke-linejoin="miter" stroke-linecap="butt" stroke-miterlimit="4" stroke-opacity="1" transform="matrix(0.275197,0,0,0.275197,-12.9343,-12.9318)"/><g fill="#333333" fill-opacity="1" font-family="Arial" font-size="16" font-style="normal" font-weight="400" stroke="none" transform="matrix(0.275197,0,0,0.275197,-12.9343,-12.9318)"><path fill="#5b9bd5" fill-opacity="1" vector-effect="none" d="M 140 593.376 C 88.6387 593.373 47.0028 551.737 47 500.376 L 47 360.876 L 233 360.876 L 233 500.376 C 232.997 551.737 191.361 593.373 140 593.376 Z"/></g><g fill="#333333" fill-opacity="1" font-family="Arial" font-size="16" font-style="normal" font-weight="400" stroke="none" transform="matrix(0.275197,0,0,0.275197,-12.9343,-12.9318)"><path fill="#5b9bd5" fill-opacity="1" vector-effect="none" d="M 326 593.376 C 274.639 593.373 233.003 551.737 233 500.376 L 233 360.876 L 419 360.876 L 419 500.376 C 418.997 551.737 377.361 593.373 326 593.376 Z"/></g><g fill="#333333" fill-opacity="1" font-family="Arial" font-size="16" font-style="normal" font-weight="400" stroke="none" transform="matrix(0.275197,0,0,0.275197,-12.9343,-12.9318)"><path fill="#5b9bd5" fill-opacity="1" vector-effect="none" d="M 512 593.376 C 460.639 593.373 419.003 551.737 419 500.376 L 419 360.876 L 605 360.876 L 605 500.376 C 604.997 551.737 563.361 593.373 512 593.376 Z"/></g><g fill="#333333" fill-opacity="1" font-family="Arial" font-size="16" font-style="normal" font-weight="400" stroke="none" transform="matrix(0.275197,0,0,0.275197,-12.9343,-12.9318)"><path fill="#5b9bd5" fill-opacity="1" vector-effect="none" d="M 698 593.376 C 646.639 593.373 605.003 551.737 605 500.376 L 605 360.876 L 791 360.876 L 791 500.376 C 790.997 551.737 749.361 593.373 698 593.376 Z"/></g><g fill="#333333" fill-opacity="1" font-family="Arial" font-size="16" font-style="normal" font-weight="400" stroke="none" transform="matrix(0.275197,0,0,0.275197,-12.9343,-12.9318)"><path fill="#5b9bd5" fill-opacity="1" vector-effect="none" d="M 883.993 593.376 C 832.632 593.373 790.996 551.737 790.993 500.376 L 790.993 360.876 L 976.993 360.876 L 976.993 500.376 C 976.99 551.737 935.354 593.373 883.993 593.376 Z"/></g><g fill="#333333" fill-opacity="1" font-family="Arial" font-size="16" font-style="normal" font-weight="400" stroke="#696464" stroke-width="2" stroke-linejoin="round" stroke-linecap="butt" stroke-opacity="1" transform="matrix(0.275197,0,0,0.275197,-12.9343,-12.9318)"><polyline fill="#5b9bd5" fill-opacity="1" vector-effect="none" points="232.998,360.876 790.998,360.876"/></g><g fill="#333333" fill-opacity="1" font-family="Arial" font-size="16" font-style="normal" font-weight="400" stroke="none" transform="matrix(0.275197,0,0,0.275197,-12.9343,-12.9318)"><path fill="#5b9bd5" fill-opacity="1" vector-effect="none" d="M 790.993 569.394 C 769.788 597.883 736.15 616.623 697.993 616.623 C 659.836 616.623 626.215 597.883 604.993 569.394 C 583.788 597.883 550.15 616.623 511.993 616.623 C 473.836 616.623 440.199 597.883 418.993 569.394 C 397.793 597.883 364.167 616.623 325.993 616.623 C 287.837 616.623 254.216 597.883 232.993 569.394 C 211.793 597.883 178.167 616.623 140.01 616.623 L 140.01 918.881 C 140.014 944.551 160.823 965.36 186.493 965.364 L 837.493 965.364 C 863.169 965.368 883.987 944.557 883.993 918.881 L 883.993 616.623 C 845.837 616.623 812.215 597.883 790.993 569.394 M 395.752 942.123 L 256.252 942.123 L 256.252 732.864 C 256.262 720.033 266.662 709.633 279.493 709.623 L 395.752 709.623 L 395.752 942.123 M 581.752 942.123 L 442.252 942.123 L 442.252 709.623 L 581.752 709.623 L 581.752 942.123 M 767.752 942.123 L 628.252 942.123 L 628.252 709.623 L 744.493 709.623 C 757.33 709.626 767.739 720.027 767.752 732.864 L 767.752 942.123"/></g><g fill="#333333" fill-opacity="1" font-family="Arial" font-size="16" font-style="normal" font-weight="400" stroke="none" transform="matrix(0.275197,0,0,0.275197,-12.9343,-12.9318)"><path fill="#5b9bd5" fill-opacity="1" vector-effect="none" d="M 977 360.876 L 47 360.876 L 151.781 88.431 C 158.688 70.4707 175.943 58.619 195.186 58.618 L 828.8 58.618 C 848.041 58.6211 865.293 70.4724 872.2 88.431 L 977 360.876 Z"/></g><g fill="#000000" fill-opacity="1" font-family="Arial" font-size="16" font-style="normal" font-weight="400" stroke="#000000" stroke-width="1" stroke-linejoin="miter" stroke-linecap="butt" stroke-miterlimit="4" stroke-opacity="1" transform="matrix(0.275197,0,0,0.275197,-12.9343,-12.9318)"/><g fill="#000000" fill-opacity="1" font-family="Arial" font-size="16" font-style="normal" font-weight="400" stroke="#000000" stroke-width="1" stroke-linejoin="miter" stroke-linecap="butt" stroke-miterlimit="4" stroke-opacity="1" transform="matrix(0.99974,0,0,0.99974,0,0)"/><g fill="#000000" fill-opacity="1" font-family="Arial" font-size="16" font-style="normal" font-weight="400" stroke="#000000" stroke-width="1" stroke-linejoin="miter" stroke-linecap="butt" stroke-miterlimit="4" stroke-opacity="1" transform="matrix(0.0666667,0,0,0.0666667,0,0)"/><g fill="none" font-family="微软雅黑" font-size="12" font-style="normal" font-weight="400" stroke="#000000" stroke-width="1" stroke-linejoin="bevel" stroke-linecap="square" stroke-opacity="1" transform="matrix(0.0666667,0,0,0.0666667,0,0)"/><g fill="none" font-family="微软雅黑" font-size="12" font-style="normal" font-weight="400" stroke="#000000" stroke-width="1" stroke-linejoin="bevel" stroke-linecap="square" stroke-opacity="1" transform="matrix(0.0666667,0,0,0.0666667,0,0)"/><g fill="none" font-family="微软雅黑" font-size="12" font-style="normal" font-weight="400" stroke="#000000" stroke-width="1" stroke-linejoin="bevel" stroke-linecap="square" stroke-opacity="1" transform="matrix(0.0666667,0,0,0.0666667,0,0)"/><g fill="none" font-family="微软雅黑" font-size="12" font-style="normal" font-weight="400" stroke="#000000" stroke-width="1" stroke-linejoin="bevel" stroke-linecap="square" stroke-opacity="1" transform="matrix(0.0666667,0,0,0.0666667,0,0)"/><g fill="none" font-family="微软雅黑" font-size="12" font-style="normal" font-weight="400" stroke="#000000" stroke-width="1" stroke-linejoin="bevel" stroke-linecap="square" stroke-opacity="1" transform="matrix(0.0666667,0,0,0.0666667,0,0)"/><g fill="none" font-family="微软雅黑" font-size="12" font-style="normal" font-weight="400" stroke="#000000" stroke-width="1" stroke-linejoin="bevel" stroke-linecap="square" stroke-opacity="1" transform="matrix(0.0666667,0,0,0.0666667,0,0)"/><g fill="none" font-family="微软雅黑" font-size="12" font-style="normal" font-weight="400" stroke="#000000" stroke-width="1" stroke-linejoin="bevel" stroke-linecap="square" stroke-opacity="1" transform="matrix(0.0666667,0,0,0.0666667,0.933333,0.933333)"/></g></svg>
