<?xml version="1.0" encoding="UTF-8" standalone="yes"?><svg xmlns="http://www.w3.org/2000/svg" xmlns:xlink="http://www.w3.org/1999/xlink" version="1.2" baseProfile="tiny" x="0" y="0" width="255" height="255" viewBox="0 0 256 256"><defs/><defs/><g fill="none" fill-rule="evenodd" stroke="#000000" stroke-width="1" stroke-linejoin="bevel" stroke-linecap="square"><g fill="none" font-family="微软雅黑" font-size="12" font-style="normal" font-weight="400" stroke="#000000" stroke-width="1" stroke-linejoin="bevel" stroke-linecap="square" stroke-opacity="1" transform="matrix(0.0666667,0,0,0.0666667,0.933333,0.933333)"/><g fill="none" font-family="微软雅黑" font-size="12" font-style="normal" font-weight="400" stroke="#000000" stroke-width="1" stroke-linejoin="bevel" stroke-linecap="square" stroke-opacity="1" transform="matrix(0.0666667,0,0,0.0666667,0,0)"/><g fill="none" font-family="微软雅黑" font-size="12" font-style="normal" font-weight="400" stroke="#000000" stroke-width="1" stroke-linejoin="bevel" stroke-linecap="square" stroke-opacity="1" transform="matrix(0.0666667,0,0,0.0666667,0,0)"/><g fill="none" font-family="微软雅黑" font-size="12" font-style="normal" font-weight="400" stroke="#000000" stroke-width="1" stroke-linejoin="bevel" stroke-linecap="square" stroke-opacity="1" transform="matrix(0.0666667,0,0,0.0666667,0,0)"/><g fill="none" font-family="微软雅黑" font-size="12" font-style="normal" font-weight="400" stroke="#000000" stroke-width="1" stroke-linejoin="bevel" stroke-linecap="square" stroke-opacity="1" transform="matrix(0.0666667,0,0,0.0666667,0,0)"/><g fill="none" font-family="微软雅黑" font-size="12" font-style="normal" font-weight="400" stroke="#000000" stroke-width="1" stroke-linejoin="bevel" stroke-linecap="square" stroke-opacity="1" transform="matrix(0.0666667,0,0,0.0666667,0,0)"/><g fill="#333333" fill-opacity="1" font-family="Arial" font-size="16" font-style="normal" font-weight="400" stroke="none" transform="matrix(9.57692,0,0,9.57692,-0.767704,-3.15767)"><path fill="#5b9bd5" fill-opacity="1" vector-effect="none" d="M 13.4171 0.611235 C 5.76164 0.611235 0.0801619 6.24261 0.0801619 13.9682 C 0.0801619 21.1627 6.28269 26.8041 13.4171 26.8041 C 21.1227 26.8041 26.8041 20.6417 26.8041 13.4472 C 26.8041 6.24261 20.6617 0.0801619 13.4171 0.611235 M 14.4592 4.66943 C 16.0224 4.66943 16.4833 5.72156 16.4833 6.24261 C 16.4833 7.75566 15.5013 8.79777 13.9382 8.79777 C 12.9461 8.79777 12.4251 7.75566 12.4251 6.76366 C 12.4251 6.24261 12.9461 4.66943 14.4592 4.66943 M 11.383 21.6938 C 10.3409 21.6938 9.87995 21.1627 10.3409 19.0785 C 11.383 14.4893 11.383 14.4893 11.383 14.4893 C 11.383 13.9682 11.383 13.4472 11.383 13.4472 C 10.8619 13.4472 9.87995 13.9682 9.3589 14.4893 C 8.83785 13.9682 8.83785 13.9682 8.83785 13.9682 C 10.8619 11.9341 13.4171 10.8319 14.4592 10.8319 C 15.5013 10.8319 15.5013 11.9341 15.5013 13.4472 C 13.9382 18.0865 13.9382 18.0865 13.9382 18.0865 C 13.9382 19.0785 13.9382 19.0785 13.9382 19.0785 C 14.4592 19.0785 15.5013 19.0785 16.0224 18.0865 C 16.4833 19.0785 16.4833 19.0785 16.4833 19.0785 C 14.4592 21.1627 12.4251 21.6938 11.383 21.6938"/></g><g fill="none" font-family="微软雅黑" font-size="12" font-style="normal" font-weight="400" stroke="#000000" stroke-width="1" stroke-linejoin="bevel" stroke-linecap="square" stroke-opacity="1" transform="matrix(0.0666667,0,0,0.0666667,0,0)"/><g fill="none" font-family="微软雅黑" font-size="12" font-style="normal" font-weight="400" stroke="#000000" stroke-width="1" stroke-linejoin="bevel" stroke-linecap="square" stroke-opacity="1" transform="matrix(0.0666667,0,0,0.0666667,0,0)"/><g fill="none" font-family="微软雅黑" font-size="12" font-style="normal" font-weight="400" stroke="#000000" stroke-width="1" stroke-linejoin="bevel" stroke-linecap="square" stroke-opacity="1" transform="matrix(0.0666667,0,0,0.0666667,0,0)"/><g fill="none" font-family="微软雅黑" font-size="12" font-style="normal" font-weight="400" stroke="#000000" stroke-width="1" stroke-linejoin="bevel" stroke-linecap="square" stroke-opacity="1" transform="matrix(0.0666667,0,0,0.0666667,0,0)"/><g fill="none" font-family="微软雅黑" font-size="12" font-style="normal" font-weight="400" stroke="#000000" stroke-width="1" stroke-linejoin="bevel" stroke-linecap="square" stroke-opacity="1" transform="matrix(0.0666667,0,0,0.0666667,0,0)"/><g fill="none" font-family="微软雅黑" font-size="12" font-style="normal" font-weight="400" stroke="#000000" stroke-width="1" stroke-linejoin="bevel" stroke-linecap="square" stroke-opacity="1" transform="matrix(0.0666667,0,0,0.0666667,0,0)"/><g fill="none" font-family="微软雅黑" font-size="12" font-style="normal" font-weight="400" stroke="#000000" stroke-width="1" stroke-linejoin="bevel" stroke-linecap="square" stroke-opacity="1" transform="matrix(0.0666667,0,0,0.0666667,0.933333,0.933333)"/></g></svg>
