<?xml version="1.0" encoding="UTF-8" standalone="yes"?><svg id="_图层_2" xmlns="http://www.w3.org/2000/svg" xmlns:xlink="http://www.w3.org/1999/xlink" version="1.2" baseProfile="tiny" x="0" y="0" width="57" height="125" viewBox="0 0 57 124.89"><defs/><defs/><g id="_图层_3"><path fill="#2e75b6" fill-opacity="1" d="M 50.53 107.12 L 6.48 107.12 C 5.88 107.12 5.39 107.61 5.39 108.2 C 5.39 108.79 5.88 109.29 6.48 109.29 L 50.53 109.29 C 51.13 109.29 51.61 108.8 51.61 108.2 C 51.61 107.6 51.12 107.12 50.53 107.12 Z"/><path fill="#2e75b6" fill-opacity="1" d="M 56.7 77.74 L 55.97 77.74 L 54.82 72.67 C 54.58 71.56 54.46 70.44 54.46 69.36 L 54.46 25.34 C 54.46 23.63 54.14 21.94 53.51 20.34 L 52.96 18.96 L 52.96 9.79 C 52.96 5.9 49.8 2.74 45.91 2.74 L 44.11 2.74 L 43.99 1.72 C 43.86 0.74 43.02 1.11022e-15 42.04 1.11022e-15 L 14.66 1.11022e-15 C 13.68 1.11022e-15 12.84 0.74 12.71 1.73 L 12.59 2.74 L 11.09 2.74 C 7.2 2.74 4.04 5.9 4.04 9.79 L 4.04 18.96 L 3.49 20.34 C 2.86 21.94 2.54 23.63 2.54 25.34 L 2.54 69.36 C 2.54 70.48 2.42 71.59 2.18 72.66 L 1.04 77.73 L 0.3 77.73 C 0.13 77.73 0 77.87 0 78.03 L 0 86.31 C 0 86.48 0.14 86.61 0.3 86.61 L 3.48 86.61 L 3.48 93.72 C 1.67 94.28 0.42 95.94 0.42 97.86 L 0.42 120.9 C 0.42 121.07 0.56 121.2 0.72 121.2 L 6.8 121.2 L 6.8 123.67 C 6.8 124.33 7.34 124.87 8.01 124.87 C 8.68 124.87 9.21 124.33 9.21 123.67 L 9.21 123.42 L 11.4 123.42 L 11.4 123.67 C 11.4 124.33 11.94 124.87 12.6 124.87 C 13.26 124.87 13.81 124.33 13.81 123.67 L 13.81 121.2 L 43.19 121.2 L 43.19 123.67 C 43.19 124.33 43.73 124.87 44.4 124.87 C 45.07 124.87 45.6 124.33 45.6 123.67 L 45.6 123.42 L 47.79 123.42 L 47.79 123.67 C 47.79 124.33 48.33 124.87 49 124.87 C 49.67 124.87 50.2 124.33 50.2 123.67 L 50.2 121.2 L 56.28 121.2 C 56.45 121.2 56.58 121.06 56.58 120.9 L 56.58 97.86 C 56.58 95.95 55.33 94.28 53.53 93.72 L 53.53 86.61 L 56.7 86.61 C 56.87 86.61 57 86.47 57 86.31 L 57 78.03 C 57 77.86 56.86 77.73 56.7 77.73 L 56.7 77.74 M 55.98 111.73 C 55.98 113.23 54.76 114.46 53.25 114.46 L 3.75 114.46 C 2.25 114.46 1.02 113.24 1.02 111.73 L 1.02 104.68 C 1.02 103.18 2.24 101.95 3.75 101.95 L 53.25 101.95 C 54.75 101.95 55.98 103.17 55.98 104.68 L 55.98 111.73 M 28.5 81.98 C 28.24 81.98 28.02 81.77 28.02 81.5 C 28.02 81.23 28.23 81.02 28.5 81.02 C 28.77 81.02 28.98 81.23 28.98 81.5 C 28.98 81.77 28.77 81.98 28.5 81.98 M 16.72 84.44 C 16.72 84.03 17.05 83.69 17.47 83.69 C 17.89 83.69 18.22 84.03 18.22 84.44 C 18.22 84.85 17.89 85.19 17.47 85.19 C 17.05 85.19 16.72 84.86 16.72 84.44 M 19.99 84.44 C 19.99 84.03 20.33 83.69 20.74 83.69 C 21.15 83.69 21.49 84.03 21.49 84.44 C 21.49 84.85 21.16 85.19 20.74 85.19 C 20.32 85.19 19.99 84.86 19.99 84.44 M 35.51 84.44 C 35.51 84.03 35.84 83.69 36.26 83.69 C 36.68 83.69 37.01 84.03 37.01 84.44 C 37.01 84.85 36.68 85.19 36.26 85.19 C 35.84 85.19 35.51 84.86 35.51 84.44 M 38.78 84.44 C 38.78 84.03 39.12 83.69 39.53 83.69 C 39.94 83.69 40.29 84.03 40.29 84.44 C 40.29 84.85 39.95 85.19 39.53 85.19 C 39.11 85.19 38.78 84.86 38.78 84.44 M 52.36 38.56 L 52.36 40.11 L 4.64 40.11 L 4.64 38.56 L 52.36 38.56 M 51.29 37.96 L 28.8 37.96 L 28.8 6.47 L 46.04 6.47 C 48.93 6.47 51.29 8.82 51.29 11.72 L 51.29 37.96 M 28.2 37.96 L 5.72 37.96 L 5.72 11.72 C 5.72 8.83 8.07 6.47 10.97 6.47 L 28.2 6.47 L 28.2 37.96 M 28.2 40.71 L 28.2 72.98 L 10.97 72.98 C 8.08 72.98 5.72 70.63 5.72 67.73 L 5.72 40.71 L 28.2 40.71 M 51.29 40.71 L 51.29 67.73 C 51.29 70.62 48.94 72.98 46.04 72.98 L 28.8 72.98 L 28.8 40.71 L 51.29 40.71"/></g></svg>
