<?xml version="1.0" encoding="UTF-8" standalone="yes"?><svg xmlns="http://www.w3.org/2000/svg" xmlns:xlink="http://www.w3.org/1999/xlink" version="1.2" baseProfile="tiny" x="0" y="0" width="255" height="255" viewBox="0 0 256 256"><defs/><defs/><g fill="none" fill-rule="evenodd" stroke="#000000" stroke-width="1" stroke-linejoin="bevel" stroke-linecap="square"><g fill="none" font-family="微软雅黑" font-size="12" font-style="normal" font-weight="400" stroke="#000000" stroke-width="1" stroke-linejoin="bevel" stroke-linecap="square" stroke-opacity="1" transform="matrix(0.0666667,0,0,0.0666667,0.933333,0.933333)"/><g fill="none" font-family="微软雅黑" font-size="12" font-style="normal" font-weight="400" stroke="#000000" stroke-width="1" stroke-linejoin="bevel" stroke-linecap="square" stroke-opacity="1" transform="matrix(0.0666667,0,0,0.0666667,0,0)"/><g fill="none" font-family="微软雅黑" font-size="12" font-style="normal" font-weight="400" stroke="#000000" stroke-width="1" stroke-linejoin="bevel" stroke-linecap="square" stroke-opacity="1" transform="matrix(0.0666667,0,0,0.0666667,0,0)"/><g fill="none" font-family="微软雅黑" font-size="12" font-style="normal" font-weight="400" stroke="#000000" stroke-width="1" stroke-linejoin="bevel" stroke-linecap="square" stroke-opacity="1" transform="matrix(0.0666667,0,0,0.0666667,0,0)"/><g fill="none" font-family="微软雅黑" font-size="12" font-style="normal" font-weight="400" stroke="#000000" stroke-width="1" stroke-linejoin="bevel" stroke-linecap="square" stroke-opacity="1" transform="matrix(0.0666667,0,0,0.0666667,0,0)"/><g fill="none" font-family="微软雅黑" font-size="12" font-style="normal" font-weight="400" stroke="#000000" stroke-width="1" stroke-linejoin="bevel" stroke-linecap="square" stroke-opacity="1" transform="matrix(0.0666667,0,0,0.0666667,0,0)"/><g fill="#333333" fill-opacity="1" font-family="Arial" font-size="16" font-style="normal" font-weight="400" stroke="none" transform="matrix(11.4846,0,0,11.4846,0,6.44437)"><path fill="#5b9bd5" fill-opacity="1" vector-effect="none" d="M 9.75971 8.22662 C 8.69757 7.70556 8.69757 7.70556 8.69757 7.70556 C 9.58937 7.18451 9.58937 7.18451 9.58937 7.18451 C 10.8319 6.48309 11.5333 5.2506 11.5333 3.85779 C 11.5333 1.75354 9.75971 0 7.27469 0 C 4.79969 0 3.01609 1.75354 3.01609 3.85779 C 3.01609 5.2506 3.72753 6.48309 4.97004 7.18451 C 5.86184 7.70556 5.86184 7.70556 5.86184 7.70556 C 4.79969 8.22662 4.79969 8.22662 4.79969 8.22662 C 1.95395 9.27874 0 12.4351 0 16.1025 C 0 16.4532 0 16.9843 0 17.5054 C 1.7836 19.6096 4.43897 21.0024 7.27469 21.0024 C 8.87793 21.0024 10.2908 20.6617 11.5333 19.9603 C 11.3629 19.6096 11.0022 19.4292 10.8319 19.0785 C 10.6515 18.9082 10.6515 18.9082 10.6515 18.9082 C 10.6515 18.7278 10.6515 18.7278 10.6515 18.7278 C 10.6515 18.3771 10.6515 17.8561 10.6515 17.335 C 10.6515 14.8801 11.7137 12.7858 13.3069 11.383 C 12.4251 9.98016 11.1826 8.75769 9.75971 8.22662 Z"/></g><g fill="#333333" fill-opacity="1" font-family="Arial" font-size="16" font-style="normal" font-weight="400" stroke="none" transform="matrix(11.4846,0,0,11.4846,0,6.44437)"><path fill="#5b9bd5" fill-opacity="1" vector-effect="none" d="M 18.818 11.6335 C 17.7759 11.2828 17.7759 11.2828 17.7759 11.2828 C 18.6477 10.5714 18.6477 10.5714 18.6477 10.5714 C 19.5094 10.0503 20.0305 9.1585 20.0305 8.27672 C 20.0305 6.69352 18.6477 5.45101 16.9142 5.45101 C 15.351 5.45101 13.9682 6.69352 13.9682 8.27672 C 13.9682 9.1585 14.4792 10.0503 15.351 10.5714 C 16.2228 11.2828 16.2228 11.2828 16.2228 11.2828 C 15.1807 11.6335 15.1807 11.6335 15.1807 11.6335 C 15.0003 11.8139 15.0003 11.8139 14.83 11.8139 C 14.6596 11.9842 14.4792 12.1646 14.3089 12.1646 C 14.1386 12.3449 13.9682 12.5153 13.7878 12.5153 C 12.5754 13.7578 11.7036 15.5213 11.7036 17.4553 C 11.7036 17.816 11.7036 18.1667 11.884 18.5174 C 12.0543 18.8681 12.2247 19.2288 12.5754 19.3992 C 12.7457 19.5795 12.9261 19.7599 13.0965 19.7599 C 13.2668 19.9303 13.4472 20.1106 13.6175 20.1106 C 14.4792 20.812 15.7017 21.1627 16.9142 21.1627 C 18.9984 21.1627 20.9022 20.1106 22.1147 18.5174 C 22.285 18.1667 22.285 17.816 22.285 17.4553 C 22.285 14.8099 20.7319 12.5153 18.818 11.6335 Z"/></g><g fill="#333333" fill-opacity="1" font-family="Arial" font-size="16" font-style="normal" font-weight="400" stroke="none" transform="matrix(11.4846,0,0,11.4846,0,6.44437)"><path fill="#5b9bd5" fill-opacity="1" vector-effect="none" d="M 7.27469 0 C 4.79969 0 3.01609 1.75354 3.01609 3.85779 C 3.01609 5.2506 3.72753 6.48309 4.97004 7.18451 C 5.86184 7.70556 5.86184 7.70556 5.86184 7.70556 C 4.79969 8.22662 4.79969 8.22662 4.79969 8.22662 C 1.95395 9.27874 0 12.4351 0 16.1025 C 0 16.4532 0 16.9843 0 17.5054 C 1.7836 19.6096 4.43897 21.0024 7.27469 21.0024 C 8.87793 21.0024 10.2908 20.6617 11.5333 19.9603 C 11.3629 19.6096 11.0022 19.4292 10.8319 19.0785 C 10.6515 18.9082 10.6515 18.9082 10.6515 18.9082 C 10.6515 18.7278 10.6515 18.7278 10.6515 18.7278 C 10.6515 18.3771 10.6515 17.8561 10.6515 17.335 C 10.6515 14.8801 11.7137 12.7858 13.3069 11.383 C 12.4251 9.98016 11.1826 8.75769 9.75971 8.22662 C 8.69757 7.70556 8.69757 7.70556 8.69757 7.70556 C 9.58937 7.18451 9.58937 7.18451 9.58937 7.18451 C 10.8319 6.48309 11.5333 5.2506 11.5333 3.85779 C 11.5333 1.75354 9.75971 0 7.27469 0 Z"/></g><g fill="#333333" fill-opacity="1" font-family="Arial" font-size="16" font-style="normal" font-weight="400" stroke="none" transform="matrix(11.4846,0,0,11.4846,0,6.44437)"><path fill="#5b9bd5" fill-opacity="1" vector-effect="none" d="M 16.9142 5.45101 C 15.351 5.45101 13.9682 6.69352 13.9682 8.27672 C 13.9682 9.1585 14.4792 10.0503 15.351 10.5714 C 16.2228 11.2828 16.2228 11.2828 16.2228 11.2828 C 15.1807 11.6335 15.1807 11.6335 15.1807 11.6335 C 15.0003 11.8139 15.0003 11.8139 14.83 11.8139 C 14.6596 11.9842 14.4792 12.1646 14.3089 12.1646 C 14.1386 12.3449 13.9682 12.5153 13.7878 12.5153 C 12.5754 13.7578 11.7036 15.5213 11.7036 17.4553 C 11.7036 17.4553 11.7036 17.4553 11.7036 17.6356 C 11.7036 17.9863 11.7036 18.1667 11.884 18.5174 C 12.0543 18.8681 12.2247 19.2288 12.5754 19.3992 C 12.7457 19.5795 12.9261 19.7599 13.0965 19.7599 C 13.2668 19.9303 13.4472 20.1106 13.6175 20.1106 C 14.4792 20.812 15.7017 21.1627 16.9142 21.1627 C 18.9984 21.1627 20.9022 20.1106 22.1147 18.5174 C 22.285 18.1667 22.285 17.816 22.285 17.4553 C 22.285 14.8099 20.7319 12.5153 18.818 11.6335 C 17.7759 11.2828 17.7759 11.2828 17.7759 11.2828 C 18.6477 10.5714 18.6477 10.5714 18.6477 10.5714 C 19.5094 10.0503 20.0305 9.1585 20.0305 8.27672 C 20.0305 6.69352 18.6477 5.45101 16.9142 5.45101 Z"/></g><g fill="none" font-family="微软雅黑" font-size="12" font-style="normal" font-weight="400" stroke="#000000" stroke-width="1" stroke-linejoin="bevel" stroke-linecap="square" stroke-opacity="1" transform="matrix(0.0666667,0,0,0.0666667,0,0)"/><g fill="none" font-family="微软雅黑" font-size="12" font-style="normal" font-weight="400" stroke="#000000" stroke-width="1" stroke-linejoin="bevel" stroke-linecap="square" stroke-opacity="1" transform="matrix(0.0666667,0,0,0.0666667,0,0)"/><g fill="none" font-family="微软雅黑" font-size="12" font-style="normal" font-weight="400" stroke="#000000" stroke-width="1" stroke-linejoin="bevel" stroke-linecap="square" stroke-opacity="1" transform="matrix(0.0666667,0,0,0.0666667,0,0)"/><g fill="none" font-family="微软雅黑" font-size="12" font-style="normal" font-weight="400" stroke="#000000" stroke-width="1" stroke-linejoin="bevel" stroke-linecap="square" stroke-opacity="1" transform="matrix(0.0666667,0,0,0.0666667,0,0)"/><g fill="none" font-family="微软雅黑" font-size="12" font-style="normal" font-weight="400" stroke="#000000" stroke-width="1" stroke-linejoin="bevel" stroke-linecap="square" stroke-opacity="1" transform="matrix(0.0666667,0,0,0.0666667,0,0)"/><g fill="none" font-family="微软雅黑" font-size="12" font-style="normal" font-weight="400" stroke="#000000" stroke-width="1" stroke-linejoin="bevel" stroke-linecap="square" stroke-opacity="1" transform="matrix(0.0666667,0,0,0.0666667,0,0)"/><g fill="none" font-family="微软雅黑" font-size="12" font-style="normal" font-weight="400" stroke="#000000" stroke-width="1" stroke-linejoin="bevel" stroke-linecap="square" stroke-opacity="1" transform="matrix(0.0666667,0,0,0.0666667,0.933333,0.933333)"/></g></svg>
