<?xml version="1.0" encoding="UTF-8" standalone="yes"?><svg id="svg2" xmlns="http://www.w3.org/2000/svg" xmlns:xlink="http://www.w3.org/1999/xlink" version="1.2" baseProfile="tiny" x="0" y="0" width="256" height="256" viewBox="0 0 256 256"><defs/><defs id="defs6"/><g transform="matrix(0.724531,0,0,0.724531,-17.2146,-16.928)"><g id="g10" transform="matrix(1.33333,0,0,-1.33333,0,400)"><g id="g12" transform="matrix(0.1,0,0,0.1,0,0)"><path id="path14" fill="#ffffff" fill-opacity="1" stroke="none" d="M 1233.11 2243.96 L 1233.11 1885.65 L 1126.19 1885.65 L 1128.94 1905.5 L 1175.05 2243.96 L 1233.11 2243.96 Z"/><path id="path16" fill="#ffffff" fill-opacity="1" stroke="none" d="M 1290.91 2244.09 L 1232.95 2244.09 L 1232.95 1885.7 L 1339.86 1885.7 L 1290.91 2244.09 Z"/><path id="path18" fill="#ffffff" fill-opacity="1" stroke="none" d="M 1232.95 2557.44 L 1232.95 2244.09 L 1290.91 2244.09 L 1290.91 2587.57 C 1277.97 2569.36 1256.88 2557.44 1232.95 2557.44 Z"/><path id="path20" fill="#ffffff" fill-opacity="1" stroke="none" d="M 1233.11 2557.35 L 1233.11 2243.96 L 1175.05 2243.96 L 1175.05 2587.6 C 1187.88 2569.27 1208.97 2557.35 1233.11 2557.35 Z"/><path id="path22" fill="#ffffff" fill-opacity="1" stroke="none" d="M 1233.11 2824.63 L 1233.11 2557.35 C 1208.97 2557.35 1187.88 2569.27 1175.05 2587.6 C 1166.82 2599.2 1161.93 2613.25 1161.93 2628.52 L 1161.93 2753.77 C 1161.93 2780.64 1176.9 2804.16 1199.18 2816.08 C 1208.97 2821.58 1220.58 2824.63 1233.11 2824.63 Z"/><path id="path24" fill="#ffffff" fill-opacity="1" stroke="none" d="M 1232.95 2824.77 L 1232.95 2557.44 C 1256.88 2557.44 1277.97 2569.36 1290.91 2587.57 C 1299.09 2599.14 1304.01 2613.2 1304.01 2628.46 L 1304.01 2753.68 C 1304.01 2792.98 1272.21 2824.77 1232.95 2824.77 Z"/><path id="path26" fill="#ffffff" fill-opacity="1" stroke="none" d="M 1473.62 2047.42 L 1473.62 1818.88 C 1473.62 1787.51 1499.22 1761.97 1530.66 1761.97 L 1530.66 2104.26 C 1499.22 2104.26 1473.62 2078.79 1473.62 2047.42 Z"/><path id="path28" fill="#ffffff" fill-opacity="1" stroke="none" d="M 1530.66 2104.26 L 1530.66 1761.97 C 1562.1 1761.97 1587.63 1787.51 1587.63 1818.88 L 1587.63 2047.42 C 1587.63 2078.79 1562.1 2104.26 1530.66 2104.26 Z"/><path id="path30" fill="#ffffff" fill-opacity="1" stroke="none" d="M 1684.67 1999.89 L 1684.67 1771.48 C 1684.67 1739.94 1710.18 1714.51 1741.55 1714.51 L 1741.55 2056.83 C 1710.18 2056.83 1684.67 2031.36 1684.67 1999.89 Z"/><path id="path32" fill="#ffffff" fill-opacity="1" stroke="none" d="M 1741.55 2056.83 L 1741.55 1714.51 C 1773.09 1714.51 1798.59 1739.94 1798.59 1771.48 L 1798.59 1999.89 C 1798.59 2031.36 1773.09 2056.83 1741.55 2056.83 Z"/><path id="path34" fill="#ffffff" fill-opacity="1" stroke="none" d="M 1990.49 391.539 C 1990.49 367.109 1970.59 347.09 1945.95 347.09 C 1921.31 347.09 1901.45 367.109 1901.45 391.539 L 1901.45 753.871 C 1901.45 778.289 1921.31 798.391 1945.95 798.391 C 1970.59 798.391 1990.49 778.289 1990.49 753.871 L 1990.49 391.539 Z"/><path id="path36" fill="#ffffff" fill-opacity="1" stroke="none" d="M 1959.79 1823.95 L 1950.93 797.922 L 1947.27 347.059 L 1946.34 256.031 C 1945.45 211.121 1908.15 174.781 1863.26 174.781 L 1112.44 174.781 C 1067.55 174.781 1030.29 211.441 1029.37 256.031 L 1029.37 261.531 L 1015.91 1823.95 C 1015.02 1868.84 1051.05 1905.5 1095.95 1905.5 L 1879.76 1905.5 C 1924.36 1905.5 1960.39 1868.84 1959.79 1823.95 Z"/><path id="path38" fill="#ffffff" fill-opacity="1" stroke="none" d="M 1785.56 1778.31 C 1785.56 1764.98 1774.73 1754.24 1761.51 1754.24 L 1214.16 1754.24 C 1200.86 1754.24 1190.15 1764.98 1190.15 1778.31 C 1190.15 1791.53 1200.86 1802.28 1214.16 1802.28 L 1761.51 1802.28 C 1774.73 1802.28 1785.56 1791.53 1785.56 1778.31 Z"/><path id="path40" fill="#ffffff" fill-opacity="1" stroke="none" d="M 1785.56 1670.85 C 1785.56 1657.65 1774.73 1646.78 1761.51 1646.78 L 1214.16 1646.78 C 1200.86 1646.78 1190.15 1657.67 1190.15 1670.85 C 1190.15 1684.17 1200.86 1694.95 1214.16 1694.95 L 1761.51 1694.95 C 1774.73 1694.95 1785.56 1684.17 1785.56 1670.85 Z"/><path id="path42" fill="#ffffff" fill-opacity="1" stroke="none" d="M 1785.56 1563.49 C 1785.56 1550.2 1774.73 1539.41 1761.51 1539.41 L 1214.16 1539.41 C 1200.86 1539.41 1190.15 1550.2 1190.15 1563.49 C 1190.15 1576.78 1200.86 1587.49 1214.16 1587.49 L 1761.51 1587.49 C 1774.73 1587.49 1785.56 1576.78 1785.56 1563.49 Z"/><path id="path44" fill="#ffffff" fill-opacity="1" stroke="none" d="M 1785.56 1456.13 C 1785.56 1442.87 1774.73 1432.09 1761.51 1432.09 L 1214.16 1432.09 C 1200.86 1432.09 1190.15 1442.87 1190.15 1456.13 C 1190.15 1469.42 1200.86 1480.16 1214.16 1480.16 L 1761.51 1480.16 C 1774.73 1480.16 1785.56 1469.42 1785.56 1456.13 Z"/><path id="path46" fill="#ffffff" fill-opacity="1" stroke="none" d="M 1785.56 1348.77 C 1785.56 1335.41 1774.73 1324.73 1761.51 1324.73 L 1214.16 1324.73 C 1200.86 1324.73 1190.15 1335.41 1190.15 1348.77 C 1190.15 1362.06 1200.86 1372.83 1214.16 1372.83 L 1761.51 1372.83 C 1774.73 1372.83 1785.56 1362.06 1785.56 1348.77 Z"/><path id="path48" fill="#ffffff" fill-opacity="1" stroke="none" d="M 1785.56 1241.34 C 1785.56 1228.09 1774.73 1217.31 1761.51 1217.31 L 1214.16 1217.31 C 1200.86 1217.31 1190.15 1228.09 1190.15 1241.34 C 1190.15 1254.71 1200.86 1265.38 1214.16 1265.38 L 1761.51 1265.38 C 1774.73 1265.38 1785.56 1254.71 1785.56 1241.34 Z"/><path id="path50" fill="#ffffff" fill-opacity="1" stroke="none" d="M 1785.56 1134.01 C 1785.56 1120.63 1774.73 1109.96 1761.51 1109.96 L 1214.16 1109.96 C 1200.86 1109.96 1190.15 1120.63 1190.15 1134.01 C 1190.15 1147.28 1200.86 1158.03 1214.16 1158.03 L 1761.51 1158.03 C 1774.73 1158.03 1785.56 1147.28 1785.56 1134.01 Z"/></g></g></g></svg>
