<?xml version="1.0" encoding="UTF-8" standalone="yes"?><svg xmlns="http://www.w3.org/2000/svg" xmlns:xlink="http://www.w3.org/1999/xlink" version="1.2" baseProfile="tiny" x="0" y="0" width="255" height="255" viewBox="0 0 256 256"><defs/><defs/><g fill="none" fill-rule="evenodd" stroke="#000000" stroke-width="1" stroke-linejoin="bevel" stroke-linecap="square"><g fill="none" font-family="微软雅黑" font-size="12" font-style="normal" font-weight="400" stroke="#000000" stroke-width="1" stroke-linejoin="bevel" stroke-linecap="square" stroke-opacity="1" transform="matrix(0.0666667,0,0,0.0666667,0.933333,0.933333)"/><g fill="none" font-family="微软雅黑" font-size="12" font-style="normal" font-weight="400" stroke="#000000" stroke-width="1" stroke-linejoin="bevel" stroke-linecap="square" stroke-opacity="1" transform="matrix(0.0666667,0,0,0.0666667,0,0)"/><g fill="none" font-family="微软雅黑" font-size="12" font-style="normal" font-weight="400" stroke="#000000" stroke-width="1" stroke-linejoin="bevel" stroke-linecap="square" stroke-opacity="1" transform="matrix(0.0666667,0,0,0.0666667,0,0)"/><g fill="none" font-family="微软雅黑" font-size="12" font-style="normal" font-weight="400" stroke="#000000" stroke-width="1" stroke-linejoin="bevel" stroke-linecap="square" stroke-opacity="1" transform="matrix(0.0666667,0,0,0.0666667,0,0)"/><g fill="none" font-family="微软雅黑" font-size="12" font-style="normal" font-weight="400" stroke="#000000" stroke-width="1" stroke-linejoin="bevel" stroke-linecap="square" stroke-opacity="1" transform="matrix(0.0666667,0,0,0.0666667,0,0)"/><g fill="none" font-family="微软雅黑" font-size="12" font-style="normal" font-weight="400" stroke="#000000" stroke-width="1" stroke-linejoin="bevel" stroke-linecap="square" stroke-opacity="1" transform="matrix(0.0666667,0,0,0.0666667,0,0)"/><g fill="#333333" fill-opacity="1" font-family="Arial" font-size="16" font-style="normal" font-weight="400" stroke="none" transform="matrix(0.748407,0,0,0.748407,35.3363,-0.0599937)"><path fill="#008dfa" fill-opacity="1" vector-effect="none" d="M 173.23 182.048 L 174.913 182.088 L 176.717 182.168 L 178.48 182.288 L 180.204 182.489 L 181.887 182.809 L 183.611 183.13 L 185.334 183.531 L 187.058 184.052 L 188.741 184.493 L 190.425 185.094 L 192.068 185.735 L 193.711 186.376 L 195.355 187.098 L 196.958 187.899 L 198.601 188.661 L 200.204 189.543 L 201.768 190.425 L 203.331 191.387 L 204.894 192.308 L 206.337 193.31 L 209.383 195.355 L 212.269 197.519 L 215.034 199.723 L 217.76 202.088 L 220.285 204.493 L 222.81 206.858 L 225.135 209.303 L 227.379 211.667 L 229.544 214.112 L 231.508 216.437 L 233.351 218.762 L 235.075 221.006 L 236.598 223.171 L 237.961 225.215 L 239.203 227.219 L 240.245 228.982 L 241.127 230.626 L 241.808 232.149 L 242.329 233.391 L 242.61 234.474 L 243.131 235.916 L 243.652 237.56 L 244.053 239.323 L 244.454 241.287 L 244.855 243.412 L 245.135 245.696 L 245.496 248.181 L 245.776 250.787 L 246.097 253.512 L 246.338 256.358 L 246.738 262.49 L 247.019 269.063 L 247.259 276.078 L 247.38 283.452 L 247.46 291.188 L 247.38 299.325 L 247.259 307.541 L 247.099 315.998 L 246.899 324.616 L 246.578 333.353 L 246.217 342.051 L 214.032 342.051 L 214.072 328.423 L 214.072 315.637 L 213.952 304.094 L 213.832 294.074 L 213.672 289.785 L 213.511 286.018 L 213.311 282.771 L 213.07 280.166 L 212.87 278.202 L 212.71 277.48 L 212.589 276.879 L 212.429 276.518 L 212.269 276.278 L 212.229 276.278 L 212.068 276.278 L 211.908 276.438 L 210.866 278.242 L 209.824 280.126 L 208.822 282.01 L 207.82 284.014 L 207.299 285.056 L 199.122 342.051 L 49.8607 342.051 L 37.3554 281.569 L 36.3534 280.486 L 35.3915 279.244 L 33.3073 276.438 L 33.2672 276.398 L 33.2271 276.398 L 33.1069 276.518 L 32.9465 276.799 L 32.9065 277.28 L 32.7461 278.683 L 32.6259 280.767 L 32.5457 283.412 L 32.5057 286.659 L 32.5057 294.675 L 32.6259 304.535 L 32.8263 315.958 L 33.1069 328.584 L 33.4676 342.051 L 0.801619 342.051 L 0.480971 327.662 L 0.240486 313.874 L 0.160324 301.048 L 0.0801619 289.425 L 0.160324 279.284 L 0.240486 270.867 L 0.40081 267.38 L 0.561133 264.494 L 0.641295 262.129 L 0.881781 260.326 L 0.961943 258.161 L 1.16235 256.037 L 1.40283 253.953 L 1.6834 251.909 L 2.04413 249.865 L 2.44494 247.901 L 2.84575 245.937 L 3.40688 244.013 L 3.92793 242.089 L 4.48907 240.205 L 5.13036 238.401 L 5.8919 236.558 L 6.61336 234.794 L 7.3749 233.071 L 8.21659 231.387 L 9.13846 229.624 L 10.0603 227.98 L 11.0623 226.417 L 12.0644 224.814 L 13.0664 223.211 L 14.2287 221.688 L 15.3109 220.205 L 16.5134 218.722 L 17.7158 217.319 L 18.8781 215.876 L 20.1607 214.513 L 21.4433 213.15 L 22.8461 211.868 L 24.1688 210.545 L 25.5716 209.303 L 27.0146 208.06 L 28.4174 206.818 L 29.9004 205.615 L 31.4235 204.533 L 32.9465 203.371 L 34.5097 202.289 L 36.1129 201.206 L 37.7162 200.204 L 40.9227 198.2 L 44.2494 196.316 L 47.6162 194.553 L 51.1032 192.87 L 54.5903 191.387 L 58.1575 189.863 L 61.7247 188.581 L 65.332 187.338 L 68.9793 186.256 L 72.5465 185.254 L 76.1939 184.292 L 79.8012 183.451 L 83.4085 182.729 L 84.2902 182.569 L 85.1319 182.569 L 86.0137 182.569 L 86.8153 182.689 L 110.664 300.647 L 111.104 295.918 L 119.281 215.034 L 116.916 206.978 L 121.525 196.517 L 131.906 196.357 L 136.195 206.978 L 134.191 216.477 L 141.566 301.97 L 161.005 186.376 L 163.25 185.054 L 164.893 183.891 L 165.494 183.451 L 165.895 183.09 L 166.095 182.849 L 166.136 182.809 L 166.136 182.729 L 167.899 182.448 L 169.703 182.208 L 171.426 182.088 L 173.23 182.048 M 134.472 0.0801619 L 136.596 0.160324 L 138.359 0.200405 L 136.596 0.8417 L 134.872 1.483 L 133.149 2.20445 L 131.506 2.92591 L 129.862 3.68745 L 128.259 4.44899 L 125.133 6.01214 L 126.495 6.49311 L 128.339 6.29271 L 130.263 6.21255 L 132.227 6.0923 L 134.271 6.0923 L 136.355 6.0923 L 138.52 6.21255 L 140.604 6.33279 L 142.808 6.5332 L 145.053 6.81376 L 147.297 7.13441 L 149.542 7.53522 L 151.827 7.97611 L 154.071 8.57732 L 156.356 9.21862 L 158.721 9.89999 L 160.965 10.8219 L 163.25 11.7437 L 165.494 12.7858 L 167.739 13.9883 L 169.903 15.2308 L 172.027 16.6336 L 174.152 18.1968 L 176.316 19.8401 L 178.32 21.6838 L 179.282 22.6057 L 180.244 23.6077 L 181.246 24.6097 L 182.208 25.6919 L 183.13 26.8142 L 184.052 27.9364 L 184.974 29.0988 L 185.815 30.3012 L 186.697 31.5838 L 187.579 32.8263 L 188.38 34.1891 L 189.182 35.5117 L 189.984 36.9546 L 190.785 38.3976 L 191.467 39.9206 L 192.148 41.4838 L 193.711 44.8907 L 195.114 48.2174 L 196.397 51.4639 L 197.639 54.6704 L 198.802 57.7967 L 199.804 60.8028 L 200.765 63.7287 L 201.647 66.6947 L 202.409 69.5405 L 203.13 72.306 L 203.731 75.0315 L 204.333 77.717 L 204.854 80.3222 L 205.255 82.8874 L 205.575 85.4526 L 205.896 87.9376 L 206.136 90.4226 L 206.297 92.8275 L 206.377 95.1923 L 206.497 97.557 L 206.497 99.8416 L 206.377 102.126 L 206.337 104.491 L 206.216 106.736 L 206.016 108.98 L 205.816 111.104 L 205.575 113.349 L 205.335 115.553 L 204.693 119.922 L 203.932 124.371 L 203.491 126.616 L 203.25 128.78 L 202.93 130.824 L 202.689 132.828 L 202.609 134.752 L 202.449 136.676 L 202.409 138.44 L 202.409 140.203 L 202.409 141.846 L 202.489 143.37 L 202.649 144.933 L 202.81 146.416 L 203.01 147.778 L 203.25 149.061 L 203.491 150.384 L 203.892 151.546 L 204.253 152.668 L 204.573 153.791 L 204.974 154.793 L 205.495 155.755 L 205.936 156.676 L 206.377 157.478 L 206.938 158.32 L 207.459 159.081 L 208.06 159.763 L 208.581 160.524 L 209.182 161.125 L 209.824 161.687 L 210.425 162.208 L 211.066 162.769 L 211.708 163.21 L 212.349 163.61 L 213.712 164.412 L 214.994 165.013 L 216.397 165.454 L 217.76 165.855 L 219.002 166.176 L 220.285 166.376 L 221.447 166.456 L 222.61 166.496 L 223.652 166.617 L 224.574 166.496 L 226.177 166.416 L 227.179 166.296 L 227.54 166.176 L 227.459 166.456 L 227.179 167.298 L 226.778 168.54 L 226.097 170.144 L 225.696 170.945 L 225.135 171.907 L 224.574 172.829 L 223.932 173.831 L 223.171 174.793 L 222.409 175.755 L 221.527 176.837 L 220.565 177.719 L 219.443 178.601 L 218.321 179.442 L 217.038 180.244 L 215.676 181.006 L 214.193 181.647 L 212.629 182.168 L 211.788 182.408 L 210.866 182.609 L 210.024 182.769 L 209.142 182.889 L 208.14 183.01 L 207.178 183.05 L 206.176 183.05 L 205.094 183.05 L 204.052 183.01 L 202.93 182.929 L 201.808 182.809 L 200.605 182.649 L 199.443 182.408 L 198.2 182.088 L 196.958 181.807 L 195.595 181.446 L 194.312 181.006 L 192.91 180.525 L 191.507 179.963 L 190.024 179.442 L 174.112 172.789 L 170.023 171.106 L 170.264 169.903 L 170.905 166.376 L 171.386 163.811 L 171.827 160.725 L 172.308 157.358 L 172.829 153.47 L 173.27 149.181 L 173.671 144.572 L 174.072 139.602 L 174.312 134.432 L 174.512 128.94 L 174.553 123.249 L 174.512 120.323 L 174.472 117.397 L 174.312 114.391 L 174.232 111.345 L 173.671 114.872 L 173.11 118.359 L 172.468 121.806 L 171.707 125.173 L 170.905 128.5 L 170.063 131.666 L 169.142 134.872 L 168.14 137.919 L 167.017 140.885 L 165.895 143.851 L 164.653 146.616 L 163.37 149.382 L 162.047 152.027 L 160.644 154.552 L 159.202 156.997 L 157.638 159.282 L 156.075 161.486 L 154.432 163.53 L 152.708 165.454 L 150.905 167.298 L 149.141 168.981 L 148.179 169.863 L 147.217 170.585 L 146.295 171.306 L 145.293 172.027 L 144.291 172.669 L 143.289 173.23 L 142.247 173.831 L 141.205 174.392 L 140.203 174.913 L 139.161 175.394 L 138.039 175.755 L 136.957 176.236 L 135.794 176.557 L 134.752 176.877 L 133.63 177.078 L 132.468 177.318 L 131.305 177.519 L 130.183 177.679 L 128.981 177.719 L 127.778 177.799 L 126.616 177.799 L 125.373 177.799 L 124.371 177.719 L 123.289 177.599 L 122.287 177.478 L 121.285 177.278 L 120.363 177.078 L 119.361 176.877 L 117.397 176.276 L 115.513 175.474 L 113.629 174.673 L 111.786 173.671 L 110.022 172.548 L 108.219 171.306 L 106.535 169.983 L 104.852 168.54 L 103.128 167.017 L 101.525 165.294 L 100.042 163.53 L 98.519 161.687 L 96.9558 159.723 L 95.553 157.678 L 94.1101 155.554 L 92.7072 153.31 L 91.3846 151.025 L 90.0218 148.66 L 88.8194 146.175 L 87.5769 143.69 L 86.3744 141.085 L 85.2923 138.44 L 84.1299 135.714 L 83.0878 133.029 L 82.0858 130.183 L 81.0437 127.337 L 80.1619 124.451 L 79.24 121.525 L 78.3583 118.479 L 78.6388 124.01 L 78.9996 129.221 L 79.4404 134.311 L 80.0016 139.161 L 80.6028 143.73 L 81.204 148.139 L 81.8052 152.147 L 82.4465 155.835 L 83.0477 159.242 L 83.6089 162.208 L 84.651 167.057 L 85.3323 170.104 L 85.5327 171.106 L 81.4846 172.789 L 65.5324 179.442 L 64.1295 179.963 L 62.6866 180.525 L 61.2838 181.006 L 60.0012 181.446 L 58.7186 181.807 L 57.3959 182.088 L 56.1534 182.408 L 54.951 182.649 L 53.7486 182.809 L 52.6664 182.929 L 51.504 183.01 L 50.4619 183.05 L 49.4198 183.05 L 48.4178 183.05 L 47.4959 183.01 L 46.534 182.889 L 45.572 182.769 L 44.6903 182.609 L 43.8486 182.408 L 43.0069 182.168 L 41.4437 181.647 L 39.9607 181.006 L 38.598 180.244 L 37.3154 179.442 L 36.1129 178.601 L 35.0708 177.719 L 34.1089 176.837 L 33.2271 175.755 L 32.4255 174.793 L 31.664 173.831 L 31.0227 172.829 L 30.4615 171.907 L 29.9405 170.945 L 29.5397 170.144 L 28.8583 168.54 L 28.3773 167.298 L 28.1368 166.456 L 28.0166 166.176 L 28.4976 166.296 L 29.6599 166.496 L 31.5036 166.737 L 32.7061 166.897 L 33.9085 166.937 L 35.1911 167.017 L 36.7142 167.017 L 38.1971 166.897 L 39.6801 166.697 L 41.2834 166.456 L 42.8866 166.095 L 44.57 165.614 L 46.1733 165.013 L 46.9348 164.653 L 47.6963 164.212 L 48.4579 163.811 L 49.2194 163.37 L 50.021 162.809 L 50.7024 162.208 L 51.4239 161.606 L 52.1052 160.965 L 52.7866 160.284 L 53.4279 159.522 L 54.0692 158.68 L 54.6704 157.839 L 55.1915 156.877 L 55.7125 155.955 L 56.2737 154.913 L 56.6745 153.871 L 57.1554 152.668 L 57.5162 151.466 L 57.8368 150.183 L 58.1575 148.821 L 58.3979 147.418 L 58.5583 145.935 L 58.7587 144.372 L 58.8388 142.808 L 58.919 141.085 L 58.8388 139.361 L 58.7988 137.518 L 58.7186 135.554 L 58.5182 133.51 L 58.2376 131.466 L 57.917 129.301 L 57.5562 127.057 L 55.8728 118.119 L 55.0311 113.589 L 54.2696 108.98 L 53.5482 104.21 L 53.2676 101.806 L 53.0271 99.3607 L 52.7866 96.8356 L 52.6263 94.3506 L 52.506 91.7854 L 52.466 89.2202 L 52.466 86.5749 L 52.506 83.8894 L 52.6664 81.204 L 52.9069 78.4384 L 53.1473 75.6728 L 53.6283 72.8271 L 54.0692 69.9413 L 54.6704 67.0153 L 55.3518 63.9692 L 56.1534 60.9631 L 56.9951 57.8368 L 58.1174 54.7105 L 59.1996 51.4639 L 60.4421 48.2174 L 61.885 44.8907 L 63.4081 41.4838 L 64.2898 39.6401 L 65.2518 37.8765 L 66.2137 36.1129 L 67.2158 34.4696 L 68.2178 32.8664 L 69.34 31.3433 L 70.3821 29.8603 L 71.5044 28.3372 L 69.7409 28.4575 L 70.5826 28.0166 L 71.3842 27.4555 L 73.1077 26.253 L 74.2299 24.9304 L 75.4724 23.6077 L 76.6749 22.3251 L 77.9174 21.1227 L 79.1198 19.9603 L 80.3623 18.838 L 81.6449 17.7559 L 82.9275 16.7538 L 84.2502 15.7117 L 85.5327 14.7899 L 86.9356 13.868 L 88.2583 12.9461 L 89.5809 12.1044 L 90.9036 11.3028 L 93.6692 9.77975 L 96.3947 8.417 L 99.1603 7.17449 L 101.846 6.0923 L 104.571 5.09028 L 107.217 4.24858 L 109.822 3.44696 L 112.427 2.80567 L 114.952 2.20445 L 117.397 1.72348 L 119.762 1.36275 L 122.046 0.961943 L 124.171 0.681376 L 126.215 0.480971 L 128.219 0.280567 L 131.626 0.160324 L 134.472 0.0801619"/></g><g fill="none" font-family="微软雅黑" font-size="12" font-style="normal" font-weight="400" stroke="#000000" stroke-width="1" stroke-linejoin="bevel" stroke-linecap="square" stroke-opacity="1" transform="matrix(0.0666667,0,0,0.0666667,0,0)"/><g fill="none" font-family="微软雅黑" font-size="12" font-style="normal" font-weight="400" stroke="#000000" stroke-width="1" stroke-linejoin="bevel" stroke-linecap="square" stroke-opacity="1" transform="matrix(0.0666667,0,0,0.0666667,0,0)"/><g fill="none" font-family="微软雅黑" font-size="12" font-style="normal" font-weight="400" stroke="#000000" stroke-width="1" stroke-linejoin="bevel" stroke-linecap="square" stroke-opacity="1" transform="matrix(0.0666667,0,0,0.0666667,0,0)"/><g fill="none" font-family="微软雅黑" font-size="12" font-style="normal" font-weight="400" stroke="#000000" stroke-width="1" stroke-linejoin="bevel" stroke-linecap="square" stroke-opacity="1" transform="matrix(0.0666667,0,0,0.0666667,0,0)"/><g fill="none" font-family="微软雅黑" font-size="12" font-style="normal" font-weight="400" stroke="#000000" stroke-width="1" stroke-linejoin="bevel" stroke-linecap="square" stroke-opacity="1" transform="matrix(0.0666667,0,0,0.0666667,0,0)"/><g fill="none" font-family="微软雅黑" font-size="12" font-style="normal" font-weight="400" stroke="#000000" stroke-width="1" stroke-linejoin="bevel" stroke-linecap="square" stroke-opacity="1" transform="matrix(0.0666667,0,0,0.0666667,0,0)"/><g fill="none" font-family="微软雅黑" font-size="12" font-style="normal" font-weight="400" stroke="#000000" stroke-width="1" stroke-linejoin="bevel" stroke-linecap="square" stroke-opacity="1" transform="matrix(0.0666667,0,0,0.0666667,0.933333,0.933333)"/></g></svg>
