<?xml version="1.0" encoding="UTF-8" standalone="yes"?><svg xmlns="http://www.w3.org/2000/svg" xmlns:xlink="http://www.w3.org/1999/xlink" version="1.2" baseProfile="tiny" x="0" y="0" width="255" height="255" viewBox="0 0 256 256"><defs/><defs/><g fill="none" fill-rule="evenodd" stroke="#000000" stroke-width="1" stroke-linejoin="bevel" stroke-linecap="square"><g fill="none" font-family="微软雅黑" font-size="12" font-style="normal" font-weight="400" stroke="#000000" stroke-width="1" stroke-linejoin="bevel" stroke-linecap="square" stroke-opacity="1" transform="matrix(0.0666667,0,0,0.0666667,0.933333,0.933333)"/><g fill="none" font-family="微软雅黑" font-size="12" font-style="normal" font-weight="400" stroke="#000000" stroke-width="1" stroke-linejoin="bevel" stroke-linecap="square" stroke-opacity="1" transform="matrix(0.0666667,0,0,0.0666667,0,0)"/><g fill="none" font-family="微软雅黑" font-size="12" font-style="normal" font-weight="400" stroke="#000000" stroke-width="1" stroke-linejoin="bevel" stroke-linecap="square" stroke-opacity="1" transform="matrix(0.0666667,0,0,0.0666667,0,0)"/><g fill="none" font-family="微软雅黑" font-size="12" font-style="normal" font-weight="400" stroke="#000000" stroke-width="1" stroke-linejoin="bevel" stroke-linecap="square" stroke-opacity="1" transform="matrix(0.0666667,0,0,0.0666667,0,0)"/><g fill="none" font-family="微软雅黑" font-size="12" font-style="normal" font-weight="400" stroke="#000000" stroke-width="1" stroke-linejoin="bevel" stroke-linecap="square" stroke-opacity="1" transform="matrix(0.0666667,0,0,0.0666667,0,0)"/><g fill="none" font-family="微软雅黑" font-size="12" font-style="normal" font-weight="400" stroke="#000000" stroke-width="1" stroke-linejoin="bevel" stroke-linecap="square" stroke-opacity="1" transform="matrix(0.0666667,0,0,0.0666667,0,0)"/><g fill="#333333" fill-opacity="1" font-family="Arial" font-size="16" font-style="normal" font-weight="400" stroke="none" transform="matrix(1.45417,0,0,1.45417,-58.1667,-62.5292)"><path fill="#008dfa" fill-opacity="1" vector-effect="none" d="M 200 185 L 212 185 C 214.209 185 216 186.791 216 189 L 216 205 C 216 207.209 214.209 209 212 209 L 160 209 C 157.791 209 156 207.209 156 205 L 156 189 C 156 186.791 157.791 185 160 185 L 172 185 L 172 177 C 172 174.791 173.791 173 176 173 L 180 173 L 180 145 L 180 81 C 180 72.1634 172.837 65 164 65 C 155.163 65 148 72.1634 148 81 L 148 93 L 147.659 93 C 146.835 95.3304 144.612 97 142 97 L 129.523 97 C 138.49 106.343 144 119.028 144 133 L 144 177 C 144 185.837 136.837 193 128 193 L 122.992 193 C 123.65 190.443 124 187.762 124 185 C 124 167.327 109.673 153 92 153 C 74.3269 153 60 167.327 60 185 C 60 187.762 60.35 190.443 61.0081 193 L 56 193 C 47.1634 193 40 185.837 40 177 L 40 133 C 40 104.281 63.2812 81 92 81 C 99.1007 81 105.869 82.4232 112.035 85 L 136 85 L 136 81 C 136 65.536 148.536 53 164 53 C 179.464 53 192 65.536 192 81 L 192 145 L 192 173 L 196 173 C 198.209 173 200 174.791 200 177 L 200 185 M 84 113 C 81.7909 113 80 114.791 80 117 L 80 125 C 80 127.209 81.7909 129 84 129 L 100 129 C 102.209 129 104 127.209 104 125 L 104 117 C 104 114.791 102.209 113 100 113 L 84 113 M 92 209 C 78.7452 209 68 198.255 68 185 C 68 171.745 78.7452 161 92 161 C 105.255 161 116 171.745 116 185 C 116 198.255 105.255 209 92 209 M 92 197 C 98.6274 197 104 191.627 104 185 C 104 178.373 98.6274 173 92 173 C 85.3726 173 80 178.373 80 185 C 80 191.627 85.3726 197 92 197"/></g><g fill="none" font-family="微软雅黑" font-size="12" font-style="normal" font-weight="400" stroke="#000000" stroke-width="1" stroke-linejoin="bevel" stroke-linecap="square" stroke-opacity="1" transform="matrix(0.0666667,0,0,0.0666667,0,0)"/><g fill="none" font-family="微软雅黑" font-size="12" font-style="normal" font-weight="400" stroke="#000000" stroke-width="1" stroke-linejoin="bevel" stroke-linecap="square" stroke-opacity="1" transform="matrix(0.0666667,0,0,0.0666667,0,0)"/><g fill="none" font-family="微软雅黑" font-size="12" font-style="normal" font-weight="400" stroke="#000000" stroke-width="1" stroke-linejoin="bevel" stroke-linecap="square" stroke-opacity="1" transform="matrix(0.0666667,0,0,0.0666667,0,0)"/><g fill="none" font-family="微软雅黑" font-size="12" font-style="normal" font-weight="400" stroke="#000000" stroke-width="1" stroke-linejoin="bevel" stroke-linecap="square" stroke-opacity="1" transform="matrix(0.0666667,0,0,0.0666667,0,0)"/><g fill="none" font-family="微软雅黑" font-size="12" font-style="normal" font-weight="400" stroke="#000000" stroke-width="1" stroke-linejoin="bevel" stroke-linecap="square" stroke-opacity="1" transform="matrix(0.0666667,0,0,0.0666667,0,0)"/><g fill="none" font-family="微软雅黑" font-size="12" font-style="normal" font-weight="400" stroke="#000000" stroke-width="1" stroke-linejoin="bevel" stroke-linecap="square" stroke-opacity="1" transform="matrix(0.0666667,0,0,0.0666667,0,0)"/><g fill="none" font-family="微软雅黑" font-size="12" font-style="normal" font-weight="400" stroke="#000000" stroke-width="1" stroke-linejoin="bevel" stroke-linecap="square" stroke-opacity="1" transform="matrix(0.0666667,0,0,0.0666667,0.933333,0.933333)"/></g></svg>
