<?xml version="1.0" encoding="UTF-8" standalone="yes"?><svg xmlns="http://www.w3.org/2000/svg" xmlns:xlink="http://www.w3.org/1999/xlink" version="1.2" baseProfile="tiny" x="0" y="0" width="255" height="255" viewBox="0 0 256 256"><defs/><defs/><g fill="none" fill-rule="evenodd" stroke="#000000" stroke-width="1" stroke-linejoin="bevel" stroke-linecap="square"><g fill="none" font-family="微软雅黑" font-size="12" font-style="normal" font-weight="400" stroke="#000000" stroke-width="1" stroke-linejoin="bevel" stroke-linecap="square" stroke-opacity="1" transform="matrix(0.0666667,0,0,0.0666667,0.933333,0.933333)"/><g fill="none" font-family="微软雅黑" font-size="12" font-style="normal" font-weight="400" stroke="#000000" stroke-width="1" stroke-linejoin="bevel" stroke-linecap="square" stroke-opacity="1" transform="matrix(0.0666667,0,0,0.0666667,0,0)"/><g fill="none" font-family="微软雅黑" font-size="12" font-style="normal" font-weight="400" stroke="#000000" stroke-width="1" stroke-linejoin="bevel" stroke-linecap="square" stroke-opacity="1" transform="matrix(0.0666667,0,0,0.0666667,0,0)"/><g fill="none" font-family="微软雅黑" font-size="12" font-style="normal" font-weight="400" stroke="#000000" stroke-width="1" stroke-linejoin="bevel" stroke-linecap="square" stroke-opacity="1" transform="matrix(0.0666667,0,0,0.0666667,0,0)"/><g fill="none" font-family="微软雅黑" font-size="12" font-style="normal" font-weight="400" stroke="#000000" stroke-width="1" stroke-linejoin="bevel" stroke-linecap="square" stroke-opacity="1" transform="matrix(0.0666667,0,0,0.0666667,0,0)"/><g fill="none" font-family="微软雅黑" font-size="12" font-style="normal" font-weight="400" stroke="#000000" stroke-width="1" stroke-linejoin="bevel" stroke-linecap="square" stroke-opacity="1" transform="matrix(0.0666667,0,0,0.0666667,0,0)"/><g fill="#333333" fill-opacity="1" font-family="Arial" font-size="16" font-style="normal" font-weight="400" stroke="none" transform="matrix(9.8532,0,0,9.8532,-0.166623,-0.249935)"><path fill="#5b9bd5" fill-opacity="1" vector-effect="none" d="M 0.0169106 21.6709 L 2.18146 21.6709 L 2.18146 23.8354 L 0.0169106 23.8354 L 0.0169106 21.6709 M 0.0169106 23.8354 L 2.18146 23.8354 L 2.18146 26 L 0.0169106 26 L 0.0169106 23.8354 M 2.18146 23.8354 L 4.34602 23.8354 L 4.34602 26 L 2.18146 26 L 2.18146 23.8354 M 4.34602 23.8354 L 6.51057 23.8354 L 6.51057 26 L 4.34602 26 L 4.34602 23.8354 M 0.0169106 19.5063 L 2.18146 19.5063 L 2.18146 21.6709 L 0.0169106 21.6709 L 0.0169106 19.5063 M 23.827 19.5063 L 25.9915 19.5063 L 25.9915 21.6709 L 23.827 21.6709 L 23.827 19.5063 M 19.4979 23.8354 L 21.6624 23.8354 L 21.6624 26 L 19.4979 26 L 19.4979 23.8354 M 21.6624 23.8354 L 23.827 23.8354 L 23.827 26 L 21.6624 26 L 21.6624 23.8354 M 23.827 23.8354 L 25.9915 23.8354 L 25.9915 26 L 23.827 26 L 23.827 23.8354 M 23.827 21.6709 L 25.9915 21.6709 L 25.9915 23.8354 L 23.827 23.8354 L 23.827 21.6709 M 19.4979 0.0253659 L 21.6624 0.0253659 L 21.6624 2.18992 L 19.4979 2.18992 L 19.4979 0.0253659 M 23.827 0.0253659 L 25.9915 0.0253659 L 25.9915 2.18992 L 23.827 2.18992 L 23.827 0.0253659 M 21.6624 0.0253659 L 23.827 0.0253659 L 23.827 2.18992 L 21.6624 2.18992 L 21.6624 0.0253659 M 23.827 4.35447 L 25.9915 4.35447 L 25.9915 6.51902 L 23.827 6.51902 L 23.827 4.35447 M 23.827 2.18992 L 25.9915 2.18992 L 25.9915 4.35447 L 23.827 4.35447 L 23.827 2.18992 M 0.0169106 0.0253659 L 2.18146 0.0253659 L 2.18146 2.18992 L 0.0169106 2.18992 L 0.0169106 0.0253659 M 4.34602 0.0253659 L 6.51057 0.0253659 L 6.51057 2.18992 L 4.34602 2.18992 L 4.34602 0.0253659 M 2.18146 0.0253659 L 4.34602 0.0253659 L 4.34602 2.18992 L 2.18146 2.18992 L 2.18146 0.0253659 M 0.0169106 4.35447 L 2.18146 4.35447 L 2.18146 6.51902 L 0.0169106 6.51902 L 0.0169106 4.35447 M 0.0169106 2.18992 L 2.18146 2.18992 L 2.18146 4.35447 L 0.0169106 4.35447 L 0.0169106 2.18992"/></g><g fill="#333333" fill-opacity="1" font-family="Arial" font-size="16" font-style="normal" font-weight="400" stroke="none" transform="matrix(9.8532,0,0,9.8532,-0.166623,-0.249935)"><path fill="#5b9bd5" fill-opacity="1" vector-effect="none" d="M 2.18146 2.18992 L 2.18146 23.8354 L 23.827 23.8354 L 23.827 2.18992 L 2.18146 2.18992 M 17.9421 19.6628 L 6.73886 8.45528 L 6.35837 8.07057 L 8.07057 6.35837 L 19.6585 17.9463 L 17.9421 19.6628"/></g><g fill="none" font-family="微软雅黑" font-size="12" font-style="normal" font-weight="400" stroke="#000000" stroke-width="1" stroke-linejoin="bevel" stroke-linecap="square" stroke-opacity="1" transform="matrix(0.0666667,0,0,0.0666667,0,0)"/><g fill="none" font-family="微软雅黑" font-size="12" font-style="normal" font-weight="400" stroke="#000000" stroke-width="1" stroke-linejoin="bevel" stroke-linecap="square" stroke-opacity="1" transform="matrix(0.0666667,0,0,0.0666667,0,0)"/><g fill="none" font-family="微软雅黑" font-size="12" font-style="normal" font-weight="400" stroke="#000000" stroke-width="1" stroke-linejoin="bevel" stroke-linecap="square" stroke-opacity="1" transform="matrix(0.0666667,0,0,0.0666667,0,0)"/><g fill="none" font-family="微软雅黑" font-size="12" font-style="normal" font-weight="400" stroke="#000000" stroke-width="1" stroke-linejoin="bevel" stroke-linecap="square" stroke-opacity="1" transform="matrix(0.0666667,0,0,0.0666667,0,0)"/><g fill="none" font-family="微软雅黑" font-size="12" font-style="normal" font-weight="400" stroke="#000000" stroke-width="1" stroke-linejoin="bevel" stroke-linecap="square" stroke-opacity="1" transform="matrix(0.0666667,0,0,0.0666667,0,0)"/><g fill="none" font-family="微软雅黑" font-size="12" font-style="normal" font-weight="400" stroke="#000000" stroke-width="1" stroke-linejoin="bevel" stroke-linecap="square" stroke-opacity="1" transform="matrix(0.0666667,0,0,0.0666667,0,0)"/><g fill="none" font-family="微软雅黑" font-size="12" font-style="normal" font-weight="400" stroke="#000000" stroke-width="1" stroke-linejoin="bevel" stroke-linecap="square" stroke-opacity="1" transform="matrix(0.0666667,0,0,0.0666667,0.933333,0.933333)"/></g></svg>
