<?xml version="1.0" encoding="UTF-8" standalone="yes"?><svg xmlns="http://www.w3.org/2000/svg" xmlns:xlink="http://www.w3.org/1999/xlink" version="1.2" baseProfile="tiny" x="0" y="0" width="255" height="255" viewBox="0 0 256 256"><defs/><defs/><g fill="none" fill-rule="evenodd" stroke="#000000" stroke-width="1" stroke-linejoin="bevel" stroke-linecap="square"><g fill="none" font-family="微软雅黑" font-size="12" font-style="normal" font-weight="400" stroke="#000000" stroke-width="1" stroke-linejoin="bevel" stroke-linecap="square" stroke-opacity="1" transform="matrix(0.0666667,0,0,0.0666667,0.933333,0.933333)"/><g fill="none" font-family="微软雅黑" font-size="12" font-style="normal" font-weight="400" stroke="#000000" stroke-width="1" stroke-linejoin="bevel" stroke-linecap="square" stroke-opacity="1" transform="matrix(0.0666667,0,0,0.0666667,0,0)"/><g fill="none" font-family="微软雅黑" font-size="12" font-style="normal" font-weight="400" stroke="#000000" stroke-width="1" stroke-linejoin="bevel" stroke-linecap="square" stroke-opacity="1" transform="matrix(0.0666667,0,0,0.0666667,0,0)"/><g fill="none" font-family="微软雅黑" font-size="12" font-style="normal" font-weight="400" stroke="#000000" stroke-width="1" stroke-linejoin="bevel" stroke-linecap="square" stroke-opacity="1" transform="matrix(0.0666667,0,0,0.0666667,0,0)"/><g fill="none" font-family="微软雅黑" font-size="12" font-style="normal" font-weight="400" stroke="#000000" stroke-width="1" stroke-linejoin="bevel" stroke-linecap="square" stroke-opacity="1" transform="matrix(0.0666667,0,0,0.0666667,0,0)"/><g fill="none" font-family="微软雅黑" font-size="12" font-style="normal" font-weight="400" stroke="#000000" stroke-width="1" stroke-linejoin="bevel" stroke-linecap="square" stroke-opacity="1" transform="matrix(0.0666667,0,0,0.0666667,0,0)"/><g fill="#333333" fill-opacity="1" font-family="Arial" font-size="16" font-style="normal" font-weight="400" stroke="none" transform="matrix(0.18281,0,0,-0.18281,-9.78246,263.523)"><path fill="#ffffff" fill-opacity="1" vector-effect="none" d="M 1216 790.668 L 1255.31 790.668 C 1248.77 811.195 1234.79 829.238 1216 842.227 L 1216 1408.37 L 296.324 1408.37 L 296.324 845.613 C 275.016 832.383 258.992 813.09 251.801 790.668 L 296.324 790.668 L 1216 790.668 M 1346.26 614.48 L 1309.8 614.48 C 1290.85 614.48 1275.42 629.871 1275.42 648.906 C 1275.42 667.859 1290.85 683.164 1309.8 683.164 L 1346.26 683.164 C 1365.29 683.164 1380.69 667.859 1380.69 648.906 C 1380.69 629.871 1365.29 614.48 1346.26 614.48 M 1273.39 238.262 C 1273.39 223.121 1261.1 210.789 1245.87 210.789 L 261.191 210.789 C 245.961 210.789 233.633 223.121 233.633 238.262 L 233.633 334.27 C 233.633 349.57 245.961 361.82 261.191 361.82 L 1245.87 361.82 C 1261.1 361.82 1273.39 349.57 1273.39 334.27 L 1273.39 238.262 M 207.066 614.48 L 177.566 614.48 C 162.297 614.48 149.922 629.871 149.922 648.906 C 149.922 667.859 162.297 683.164 177.566 683.164 L 207.066 683.164 C 222.207 683.164 234.625 667.859 234.625 648.906 C 234.625 629.871 222.207 614.48 207.066 614.48 M 1261.1 790.668 L 1255.31 790.668 L 1258.79 775.855 L 1259.53 775.855 L 1259.78 773.617 L 1259.45 768.074 L 1259.16 762.117 C 1253.91 694.836 1203.1 641.953 1141.19 641.953 L 365.883 641.953 C 303.938 641.953 253.207 694.836 247.871 762.117 L 247.582 768.074 L 247.41 773.617 L 247.496 775.855 L 248.32 775.855 L 251.801 790.668 L 246.09 790.668 C 140.117 790.668 53.5117 704.023 53.5117 598.176 L 53.5117 267.148 C 53.5117 161.301 140.117 74.6602 246.09 74.6602 L 1261.1 74.6602 C 1366.94 74.6602 1453.51 161.301 1453.51 267.148 L 1453.51 598.176 C 1453.51 704.023 1366.94 790.668 1261.1 790.668"/></g><g fill="none" font-family="微软雅黑" font-size="12" font-style="normal" font-weight="400" stroke="#000000" stroke-width="1" stroke-linejoin="bevel" stroke-linecap="square" stroke-opacity="1" transform="matrix(0.0666667,0,0,0.0666667,0,0)"/><g fill="none" font-family="微软雅黑" font-size="12" font-style="normal" font-weight="400" stroke="#000000" stroke-width="1" stroke-linejoin="bevel" stroke-linecap="square" stroke-opacity="1" transform="matrix(0.0666667,0,0,0.0666667,0,0)"/><g fill="none" font-family="微软雅黑" font-size="12" font-style="normal" font-weight="400" stroke="#000000" stroke-width="1" stroke-linejoin="bevel" stroke-linecap="square" stroke-opacity="1" transform="matrix(0.0666667,0,0,0.0666667,0,0)"/><g fill="none" font-family="微软雅黑" font-size="12" font-style="normal" font-weight="400" stroke="#000000" stroke-width="1" stroke-linejoin="bevel" stroke-linecap="square" stroke-opacity="1" transform="matrix(0.0666667,0,0,0.0666667,0,0)"/><g fill="none" font-family="微软雅黑" font-size="12" font-style="normal" font-weight="400" stroke="#000000" stroke-width="1" stroke-linejoin="bevel" stroke-linecap="square" stroke-opacity="1" transform="matrix(0.0666667,0,0,0.0666667,0,0)"/><g fill="none" font-family="微软雅黑" font-size="12" font-style="normal" font-weight="400" stroke="#000000" stroke-width="1" stroke-linejoin="bevel" stroke-linecap="square" stroke-opacity="1" transform="matrix(0.0666667,0,0,0.0666667,0,0)"/><g fill="none" font-family="微软雅黑" font-size="12" font-style="normal" font-weight="400" stroke="#000000" stroke-width="1" stroke-linejoin="bevel" stroke-linecap="square" stroke-opacity="1" transform="matrix(0.0666667,0,0,0.0666667,0.933333,0.933333)"/></g></svg>
